<svg xmlns="http://www.w3.org/2000/svg" viewBox="0 0 384.04 60.32"><defs><style>.cls-1{fill:#292929;}</style></defs><title>Asset 8</title><g id="Layer_2" data-name="Layer 2"><g id="Layer_1-2" data-name="Layer 1"><path class="cls-1" d="M13.35,21.61a5.86,5.86,0,0,1,2.57,2.14,6,6,0,0,1,.9,3.3,5.9,5.9,0,0,1-.9,3.27,5.75,5.75,0,0,1-2.57,2.15,9.59,9.59,0,0,1-3.94.74H6v4.71H2V20.85H9.41A9.58,9.58,0,0,1,13.35,21.61ZM11.9,29.23a2.69,2.69,0,0,0,.92-2.18,2.73,2.73,0,0,0-.92-2.21,4.17,4.17,0,0,0-2.71-.77H6V30H9.19A4.17,4.17,0,0,0,11.9,29.23Z" transform="translate(-2.02)"/><path class="cls-1" d="M30.74,37.92l-3.29-4.76H23.82v4.76H19.87V20.85h7.38a9.55,9.55,0,0,1,3.94.76,5.86,5.86,0,0,1,2.57,2.14,6,6,0,0,1,.9,3.3,5.55,5.55,0,0,1-3.51,5.38L35,37.92Zm-1-13.08A4.17,4.17,0,0,0,27,24.07H23.82V30H27a4.11,4.11,0,0,0,2.71-.78,2.7,2.7,0,0,0,.93-2.19A2.7,2.7,0,0,0,29.74,24.84Z" transform="translate(-2.02)"/><path class="cls-1" d="M41.5,37.06a8.52,8.52,0,0,1-3.34-3.15,9.07,9.07,0,0,1,0-9,8.52,8.52,0,0,1,3.34-3.15,10.53,10.53,0,0,1,9.57,0,8.69,8.69,0,0,1,0,15.35,10.53,10.53,0,0,1-9.57,0ZM49,34.15a5,5,0,0,0,1.91-1.94,6.05,6.05,0,0,0,0-5.65A5,5,0,0,0,49,24.62a5.75,5.75,0,0,0-5.46,0,5,5,0,0,0-1.91,1.94,6.05,6.05,0,0,0,0,5.65,5,5,0,0,0,1.91,1.94,5.67,5.67,0,0,0,5.46,0Z" transform="translate(-2.02)"/><path class="cls-1" d="M58.44,37.56a6,6,0,0,1-2.37-1.84l2.19-2.63A4,4,0,0,0,61.43,35c1.61,0,2.41-.94,2.41-2.83V24h-6V20.85h9.92V31.92a6.44,6.44,0,0,1-1.56,4.72,6.19,6.19,0,0,1-4.59,1.57A7.6,7.6,0,0,1,58.44,37.56Z" transform="translate(-2.02)"/><path class="cls-1" d="M85.12,34.75v3.17H71.91V20.85h12.9V24h-9v3.71h7.93V30.8H75.83v3.95Z" transform="translate(-2.02)"/><path class="cls-1" d="M94.73,31.21,92.44,33.6v4.32H88.51V20.85h3.93v8l7.55-8h4.39l-7.07,7.61,7.48,9.46h-4.6Z" transform="translate(-2.02)"/><path class="cls-1" d="M109.16,24.07H103.7V20.85h14.87v3.22h-5.46V37.92h-4Z" transform="translate(-2.02)"/><path class="cls-1" d="M119.62,37.43a2.29,2.29,0,0,1-.69-1.71,2.22,2.22,0,0,1,.69-1.69,2.34,2.34,0,0,1,1.68-.65A2.37,2.37,0,0,1,123,34a2.24,2.24,0,0,1,.68,1.69,2.32,2.32,0,0,1-.68,1.71,2.28,2.28,0,0,1-1.68.68A2.25,2.25,0,0,1,119.62,37.43Z" transform="translate(-2.02)"/><path class="cls-1" d="M151.62,20.85,146,37.92H141.8L138,26.36l-3.87,11.56H130l-5.61-17.07h4.1l3.85,12,4-12H140l3.9,12.1,4-12.1Z" transform="translate(-2.02)"/><path class="cls-1" d="M167.27,34.75v3.17H154.06V20.85H167V24h-9v3.71h7.93V30.8H158v3.95Z" transform="translate(-2.02)"/><path class="cls-1" d="M181.53,37.92l-3.29-4.76h-3.63v4.76h-4V20.85h7.39a9.5,9.5,0,0,1,3.93.76,5.81,5.81,0,0,1,2.57,2.14,5.88,5.88,0,0,1,.91,3.3A5.58,5.58,0,0,1,182,32.43l3.82,5.49Zm-1-13.08a4.16,4.16,0,0,0-2.7-.77h-3.22V30h3.22a4.1,4.1,0,0,0,2.7-.78,2.7,2.7,0,0,0,.93-2.19A2.7,2.7,0,0,0,180.53,24.84Z" transform="translate(-2.02)"/><path class="cls-1" d="M195,31.21l-2.3,2.39v4.32h-3.92V20.85h3.92v8l7.56-8h4.39l-7.07,7.61,7.48,9.46h-4.6Z" transform="translate(-2.02)"/><path class="cls-1" d="M206.59,37.43a2.28,2.28,0,0,1-.68-1.71,2.21,2.21,0,0,1,.68-1.69A2.5,2.5,0,0,1,210,34a2.22,2.22,0,0,1,.69,1.69,2.29,2.29,0,0,1-.69,1.71,2.42,2.42,0,0,1-3.36,0Z" transform="translate(-2.02)"/><path class="cls-1" d="M215.67,37.66a9.09,9.09,0,0,1-3-1.42l1.34-3a8.9,8.9,0,0,0,2.6,1.29,9.7,9.7,0,0,0,3,.49,4.72,4.72,0,0,0,2.48-.5,1.5,1.5,0,0,0,.81-1.33,1.27,1.27,0,0,0-.48-1,3.43,3.43,0,0,0-1.22-.64,19.19,19.19,0,0,0-2-.54,27.71,27.71,0,0,1-3.19-.93,5.17,5.17,0,0,1-2.13-1.48,4,4,0,0,1-.89-2.73,4.81,4.81,0,0,1,.8-2.7,5.46,5.46,0,0,1,2.43-1.91,9.91,9.91,0,0,1,4-.71,13.08,13.08,0,0,1,3.19.39,9.65,9.65,0,0,1,2.73,1.12l-1.22,3a9.53,9.53,0,0,0-4.73-1.34,4.43,4.43,0,0,0-2.45.54,1.66,1.66,0,0,0-.79,1.41,1.4,1.4,0,0,0,.92,1.31,14.75,14.75,0,0,0,2.79.84,26,26,0,0,1,3.19.92,5.32,5.32,0,0,1,2.13,1.46,3.9,3.9,0,0,1,.89,2.71,4.67,4.67,0,0,1-.81,2.67,5.58,5.58,0,0,1-2.45,1.91,10,10,0,0,1-4,.71A13.78,13.78,0,0,1,215.67,37.66Z" transform="translate(-2.02)"/><path class="cls-1" d="M233.06,24.07H227.6V20.85h14.87v3.22H237V37.92h-3.95Z" transform="translate(-2.02)"/><path class="cls-1" d="M255.22,34.26H247.3l-1.51,3.66h-4l7.61-17.07h3.9l7.63,17.07h-4.15Zm-1.24-3-2.71-6.53-2.7,6.53Z" transform="translate(-2.02)"/><path class="cls-1" d="M262.9,20.85h7.75a10.85,10.85,0,0,1,4.91,1.07,7.88,7.88,0,0,1,3.32,3,8.38,8.38,0,0,1,1.18,4.49,8.37,8.37,0,0,1-1.18,4.48,7.9,7.9,0,0,1-3.32,3,11,11,0,0,1-4.91,1.06H262.9Zm7.56,13.83a5.75,5.75,0,0,0,4.08-1.43,5,5,0,0,0,1.52-3.86,5,5,0,0,0-1.52-3.87,5.74,5.74,0,0,0-4.08-1.42h-3.61V34.68Z" transform="translate(-2.02)"/><path class="cls-1" d="M286.57,24.07h-5.46V20.85H296v3.22h-5.46V37.92h-3.95Z" transform="translate(-2.02)"/><path class="cls-1" d="M345.64.36A3,3,0,0,0,345.28,2v1.3H344c-1.54,0-2.29.61-1.69,1.36a2.53,2.53,0,0,0,1.69.46h1.33V6.46c0,1.54.61,2.3,1.36,1.7a2.57,2.57,0,0,0,.45-1.7V5.14h1.33a2.56,2.56,0,0,0,1.7-.46c.6-.75-.16-1.36-1.7-1.36h-1.33V2c0-1.14-.39-2-.9-2A1.31,1.31,0,0,0,345.64.36Z" transform="translate(-2.02)"/><path class="cls-1" d="M329.42,5.8a10.46,10.46,0,0,0-.21,1.75l-.09,1.36-1.66.15c-1.42.12-1.66.24-1.66.76s.24.63,1.66.75l1.66.15.15,1.66c.12,1.42.24,1.67.76,1.67s.63-.25.75-1.67l.15-1.66,1.67-.15c1.42-.12,1.66-.24,1.66-.75s-.24-.64-1.66-.76l-1.67-.15-.15-1.66c-.12-1.27-.27-1.69-.69-1.75A.58.58,0,0,0,329.42,5.8Z" transform="translate(-2.02)"/><path class="cls-1" d="M339.27,9.3a9.41,9.41,0,0,1-2.75,2.63c-1,.64-1.81,1.33-1.81,1.54s.76.79,1.66,1.3A5.82,5.82,0,0,1,338,16,8.69,8.69,0,0,1,337,17.67c-1.12,1.54-3.15,5.44-3.15,6.07,0,.18-.63.52-1.42.73-4.29,1.18-6.94,3.17-6.61,4.92a3.17,3.17,0,0,0,.54,1.33,14.68,14.68,0,0,0,5,2.66l2,.66.51,1.63a20.86,20.86,0,0,0,1.15,2.9,6.57,6.57,0,0,1,.67,1.67,13.54,13.54,0,0,1-1.06,2.41c-1.81,3.63-1.72,5.92.33,6.77,1.3.54,3,.27,6-.94,2.3-.9,2.3-.9,3.9-.12A25.11,25.11,0,0,0,367.64,48a22.53,22.53,0,0,0,10.09-11.72l.72-2.27,1.93-.66c3.78-1.27,5.68-2.72,5.68-4.29s-2.29-3.17-5.95-4.32a5.22,5.22,0,0,1-2.2-1.06,19.55,19.55,0,0,0-1.36-3.08l-1.39-2.69,1.08-2.23A8.39,8.39,0,0,0,377.3,12c0-1.93-.36-2.54-1.78-2.93S372.38,9,369.3,10.3l-2.15.88L365,10.3a24.08,24.08,0,0,0-17.73-.15A24.05,24.05,0,0,1,344,11.27c-.39,0-1-.55-1.9-1.69a8.27,8.27,0,0,0-1.6-1.73A5.47,5.47,0,0,0,339.27,9.3Zm20.78,1a23.18,23.18,0,0,1,8.37,3.32c2.24,1.57,4.65,3.87,4.65,4.5,0,1.61-13.44,16.35-15.34,16.83s-19.4-.94-22.11-1.81l-1.06-.37-.09-2.86a13,13,0,0,1,.72-5.44,22.11,22.11,0,0,1,3.3-6.5c.45-.57.48-.57,1.26.28l.82.87.6-.81c1.73-2.21,2.66-3.15,3.93-3.78,1.45-.7,1.75-1.3.88-1.78-1.06-.61,3.62-2.3,7.76-2.78A20,20,0,0,1,360.05,10.3Zm-17.7,1.6,1.75,1.63-1.05.67a6.78,6.78,0,0,0-1.72,1.54l-.64.87L339,15l-1.72-1.6,1.51-1.54a18.66,18.66,0,0,1,1.69-1.57A12.46,12.46,0,0,1,342.35,11.9Zm33.44-1c.42.76.15,2-.81,4.11-.76,1.63-1.12,1.94-1.39,1.18a14.18,14.18,0,0,0-2.48-2.26l-2.27-1.82,1-.51C372.5,10.21,375.25,9.88,375.79,10.9Zm-.09,11.15A18.82,18.82,0,0,1,377.3,30c0,3,.06,3-2.87,3.53a110.26,110.26,0,0,1-12.05,1.24H360.6l4.5-4.62a94.94,94.94,0,0,0,6.76-7.68C374.43,19,374.31,19,375.7,22.05Zm-42.62,4.56a27.27,27.27,0,0,0-.18,3.33c0,2.74,0,2.71-2.54,1.75-1.81-.7-3.2-1.78-3.2-2.48s1.51-2,3.56-2.72C333.29,25.49,333.32,25.49,333.08,26.61Zm47.67-.21c3.2,1.21,4.1,2.06,3.62,3.35-.21.58-4.14,2.57-5,2.57-.49,0-.55-.3-.55-2.38a27.27,27.27,0,0,0-.18-3.33c-.12-.51-.12-.93,0-.93S379.69,26,380.75,26.4Zm-41.21,8.76a124.26,124.26,0,0,0,14.17,1.09,7.17,7.17,0,0,1,2.45.21c0,.51-7,5.8-10.55,8-2.23,1.38-2.23,1.38-3.14.87-2.53-1.48-6.64-7.16-7.34-10.15-.21-.84-.18-.87.67-.69C336.28,34.65,338,34.92,339.54,35.16Zm37.16-.42c0,.72-1.54,4-2.66,5.65-5.71,8.42-17.61,11.57-27.61,7.28-.82-.34-1.45-.79-1.45-1s.73-.75,1.57-1.24a104,104,0,0,0,9.91-7.25l2.26-1.87,5.44-.36c3-.21,6.8-.61,8.46-.91C376.4,34.38,376.7,34.38,376.7,34.74Zm-37.46,9.63,2.42,2.39-1.57.67c-2,.84-4.29,1.14-4.93.6s-.54-2.08.46-4.17A8,8,0,0,1,336.67,42,32.83,32.83,0,0,1,339.24,44.37Z" transform="translate(-2.02)"/><path class="cls-1" d="M355.67,14.56a14.69,14.69,0,0,1-5.55,5.65c-1,.54-1.82,1.15-1.82,1.36,0,.48.7,1.09,2.42,2.05a14.67,14.67,0,0,1,4.77,5c1.27,2.44,1.81,2.38,3.33-.31a12.8,12.8,0,0,1,4.59-4.68c2.93-1.66,3-2.14.84-3.26a14.72,14.72,0,0,1-5.65-5.56C357.37,12.48,356.76,12.42,355.67,14.56Zm2.39,2.81A11.58,11.58,0,0,0,361.87,21c1.14.67,1.14.82.18,1.27a13.87,13.87,0,0,0-4.26,4.14,3.15,3.15,0,0,1-.73,1.06,5.69,5.69,0,0,1-1-1.33,12.5,12.5,0,0,0-4-3.87c-.39-.18-.73-.42-.73-.51a5.38,5.38,0,0,1,1.36-1,11.58,11.58,0,0,0,3.66-3.8,2.8,2.8,0,0,1,.72-.94A5.17,5.17,0,0,1,358.06,17.37Z" transform="translate(-2.02)"/><path class="cls-1" d="M381.59,12.75a2.62,2.62,0,0,0-.36,1.51c0,1.12,0,1.15-1.18,1.15a2.24,2.24,0,0,0-1.54.45c-.57.69.15,1.36,1.54,1.36,1.18,0,1.18,0,1.18,1.18a2.24,2.24,0,0,0,.45,1.54c.7.57,1.36-.15,1.36-1.54,0-1.18,0-1.18,1.18-1.18,1.39,0,2.11-.67,1.54-1.36a2.24,2.24,0,0,0-1.54-.45c-1.15,0-1.18,0-1.18-1.15s-.42-1.88-.9-1.88A1.25,1.25,0,0,0,381.59,12.75Z" transform="translate(-2.02)"/><path class="cls-1" d="M373.92,47a19.31,19.31,0,0,0-1.12,1.66A10.13,10.13,0,0,1,369,52.17c-1.78.84-1.69,1.72.31,2.75a10.54,10.54,0,0,1,3.92,3.86c.52.82,1.15,1.48,1.39,1.48s.88-.66,1.39-1.48a10.55,10.55,0,0,1,3.93-3.86c2.08-1.09,2.08-1.82,0-2.9a10,10,0,0,1-3.9-3.87C374.89,46.49,374.55,46.31,373.92,47Zm1.51,3.57a7.48,7.48,0,0,0,1.87,1.9,4.61,4.61,0,0,1,1.18,1,4.68,4.68,0,0,1-1.18,1,7.51,7.51,0,0,0-1.87,1.91,4.28,4.28,0,0,1-.85,1,4.36,4.36,0,0,1-.84-1,7.39,7.39,0,0,0-1.88-1.91,4.75,4.75,0,0,1-1.17-1,4.67,4.67,0,0,1,1.17-1,7.36,7.36,0,0,0,1.88-1.9,4.29,4.29,0,0,1,.84-1.06A4.21,4.21,0,0,1,375.43,50.6Z" transform="translate(-2.02)"/><path class="cls-1" d="M329.94,49.9a3.91,3.91,0,0,0-.37,2v1.6h-1.63c-1.05,0-1.75.15-2,.45-.66.79.15,1.36,2,1.36h1.63v1.63c0,1.06.16,1.75.46,2,.78.67,1.36-.15,1.36-2V55.28H333c1.06,0,1.75-.15,2-.45.67-.79-.15-1.36-2-1.36h-1.63v-1.6c0-1.42-.37-2.33-.91-2.33A1.24,1.24,0,0,0,329.94,49.9Z" transform="translate(-2.02)"/><path class="cls-1" d="M363.77,52.32a3,3,0,0,0-.36,1.66v1.3h-1.33a2.52,2.52,0,0,0-1.69.45c-.61.76.15,1.36,1.69,1.36h1.33v1.33a2.52,2.52,0,0,0,.45,1.69c.76.61,1.36-.15,1.36-1.69V57.09h1.33a2.53,2.53,0,0,0,1.69-.45c.6-.76-.15-1.36-1.69-1.36h-1.33V54c0-1.15-.39-2-.91-2A1.24,1.24,0,0,0,363.77,52.32Z" transform="translate(-2.02)"/></g></g></svg>