<svg version="1.1" xmlns="http://www.w3.org/2000/svg" viewBox="0 0 384 60.3">
<path fill="currentColor" d="M11.3,21.6c1,0.4,1.9,1.2,2.6,2.1c0.6,1,0.9,2.1,0.9,3.3c0,1.2-0.3,2.3-0.9,3.3c-0.6,1-1.5,1.7-2.6,2.2
	c-1.2,0.5-2.6,0.8-3.9,0.7H4v4.7H0V20.9h7.4C8.7,20.8,10.1,21.1,11.3,21.6z M9.9,29.2c0.6-0.5,1-1.4,0.9-2.2c0-0.8-0.3-1.7-0.9-2.2
	c-0.8-0.6-1.7-0.8-2.7-0.8H4V30h3.2C8.1,30.1,9.1,29.8,9.9,29.2z M28.7,37.9l-3.3-4.8h-3.6v4.8h-3.9V20.9h7.4c1.4,0,2.7,0.2,3.9,0.8
	c1,0.4,1.9,1.2,2.6,2.1c0.6,1,0.9,2.1,0.9,3.3c0.1,2.4-1.3,4.5-3.5,5.4l3.8,5.5H28.7z M27.7,24.8C26.9,24.3,26,24,25,24.1h-3.2V30
	H25c1,0.1,1.9-0.2,2.7-0.8c0.6-0.5,1-1.4,0.9-2.2C28.7,26.2,28.3,25.4,27.7,24.8z M39.5,37.1c-1.4-0.7-2.5-1.8-3.3-3.2
	c-1.6-2.8-1.6-6.2,0-9c0.8-1.3,2-2.4,3.3-3.1c3-1.5,6.6-1.5,9.6,0c4.2,2.3,5.9,7.5,3.6,11.8c-0.8,1.5-2.1,2.8-3.6,3.6
	C46,38.6,42.5,38.6,39.5,37.1L39.5,37.1z M47,34.2c0.8-0.5,1.5-1.1,1.9-1.9c0.9-1.8,0.9-3.9,0-5.6c-0.4-0.8-1.1-1.5-1.9-1.9
	c-1.7-0.9-3.8-0.9-5.5,0c-0.8,0.5-1.5,1.1-1.9,1.9c-0.9,1.8-0.9,3.9,0,5.7c0.4,0.8,1.1,1.5,1.9,1.9C43.2,35.1,45.3,35.1,47,34.2z
	 M56.4,37.6c-0.9-0.4-1.7-1-2.4-1.8l2.2-2.6c0.7,1.1,1.9,1.8,3.2,1.9c1.6,0,2.4-0.9,2.4-2.8V24h-6v-3.1h9.9v11.1
	c0.1,1.7-0.4,3.4-1.6,4.7c-1.3,1.1-2.9,1.7-4.6,1.6C58.5,38.2,57.4,38,56.4,37.6z M83.1,34.8v3.2H69.9V20.9h12.9V24h-9v3.7h7.9v3.1
	h-7.9v4H83.1z M92.7,31.2l-2.3,2.4v4.3h-3.9V20.9h3.9v8l7.6-8h4.4l-7.1,7.6l7.5,9.5h-4.6L92.7,31.2z M107.1,24.1h-5.5v-3.2h14.9v3.2
	h-5.5v13.8h-4L107.1,24.1z M117.6,37.4c-0.5-0.4-0.7-1.1-0.7-1.7c0-0.6,0.2-1.3,0.7-1.7c0.5-0.4,1.1-0.7,1.7-0.7
	c0.6,0,1.2,0.2,1.7,0.6c0.5,0.4,0.7,1.1,0.7,1.7c0,0.6-0.2,1.3-0.7,1.7c-0.4,0.4-1.1,0.7-1.7,0.7C118.7,38.1,118,37.9,117.6,37.4z
	 M149.6,20.9L144,37.9h-4.2L136,26.4l-3.9,11.6H128l-5.6-17.1h4.1l3.8,12l4-12h3.7l3.9,12.1l4-12.1L149.6,20.9z M165.3,34.8v3.2H152
	V20.9H165V24h-9v3.7h7.9v3.1H156v4H165.3z M179.5,37.9l-3.3-4.8h-3.6v4.8h-4V20.9h7.4c1.3,0,2.7,0.2,3.9,0.8c1,0.4,1.9,1.2,2.6,2.1
	c0.6,1,0.9,2.1,0.9,3.3c0.1,2.3-1.3,4.5-3.4,5.4l3.8,5.5H179.5z M178.5,24.8c-0.8-0.6-1.7-0.8-2.7-0.8h-3.2V30h3.2
	c1,0.1,1.9-0.2,2.7-0.8c0.6-0.5,1-1.4,0.9-2.2C179.5,26.2,179.1,25.4,178.5,24.8z M193,31.2l-2.3,2.4v4.3h-3.9V20.9h3.9v8l7.6-8h4.4
	l-7.1,7.6l7.5,9.5h-4.6L193,31.2z M204.6,37.4c-0.5-0.4-0.7-1.1-0.7-1.7c0-0.6,0.2-1.3,0.7-1.7c1-0.9,2.4-0.9,3.4,0
	c0.5,0.4,0.7,1.1,0.7,1.7c0,0.6-0.2,1.3-0.7,1.7C207,38.3,205.6,38.3,204.6,37.4L204.6,37.4z M213.6,37.7c-1.1-0.3-2.1-0.8-3-1.4
	l1.3-3c0.8,0.6,1.7,1,2.6,1.3c1,0.3,2,0.5,3,0.5c0.9,0.1,1.7-0.1,2.5-0.5c0.5-0.3,0.8-0.8,0.8-1.3c0-0.4-0.2-0.8-0.5-1
	c-0.4-0.3-0.8-0.5-1.2-0.6c-0.7-0.2-1.3-0.4-2-0.5c-1.1-0.2-2.1-0.6-3.2-0.9c-0.8-0.3-1.6-0.8-2.1-1.5c-0.6-0.8-0.9-1.7-0.9-2.7
	c0-1,0.3-1.9,0.8-2.7c0.6-0.9,1.5-1.5,2.4-1.9c1.3-0.5,2.6-0.8,4-0.7c1.1,0,2.1,0.1,3.2,0.4c1,0.2,1.9,0.6,2.7,1.1l-1.2,3
	c-1.4-0.9-3.1-1.3-4.7-1.3c-0.9-0.1-1.7,0.1-2.4,0.5c-0.5,0.3-0.8,0.8-0.8,1.4c0,0.6,0.4,1.1,0.9,1.3c0.9,0.4,1.8,0.7,2.8,0.8
	c1.1,0.2,2.1,0.5,3.2,0.9c0.8,0.3,1.6,0.8,2.1,1.5c0.6,0.8,0.9,1.7,0.9,2.7c0,1-0.3,1.9-0.8,2.7c-0.6,0.9-1.5,1.5-2.4,1.9
	c-1.3,0.5-2.6,0.7-4,0.7C216.3,38.2,214.9,38,213.6,37.7z M231,24.1h-5.5v-3.2h14.9v3.2H235v13.8H231L231,24.1z M253.2,34.3h-7.9
	l-1.5,3.7h-4l7.6-17.1h3.9l7.6,17.1h-4.2L253.2,34.3z M252,31.3l-2.7-6.5l-2.7,6.5H252z M260.9,20.9h7.8c1.7,0,3.4,0.3,4.9,1.1
	c1.4,0.7,2.5,1.7,3.3,3c0.8,1.4,1.2,2.9,1.2,4.5c0,1.6-0.4,3.1-1.2,4.5c-0.8,1.3-1.9,2.3-3.3,3c-1.5,0.7-3.2,1.1-4.9,1.1h-7.8V20.9z
	 M268.4,34.7c1.5,0.1,3-0.4,4.1-1.4c1-1,1.6-2.4,1.5-3.9c0.1-1.4-0.5-2.9-1.5-3.9c-1.1-1-2.6-1.5-4.1-1.4h-3.6v10.6H268.4z
	 M284.6,24.1h-5.5v-3.2H294v3.2h-5.5v13.8h-4L284.6,24.1z M374.6,20.2c-0.5-1.3-1.2-2.6-2-3.9c0.1-3.8-1-6.6-3.3-8.3
	c-2-1.4-4.7-1.8-7.8-1h0c-2.8-1.2-5.9-1.8-9.2-1.8c-5.2,0-10.2,1.6-14.4,4.7l-2.2-3.1l-2.9,3.9l-3.8,2.8l3.2,2.4
	c-1.2,1.8-2.1,3.6-2.7,5.6c-6.1,1.5-9.8,2.7-9.8,6.2c0,3.1,3.6,5.8,9.4,7.7c0.6,2.5,1.7,4.8,3.1,6.9c0,0,0,0,0,0
	c-0.5,5.9,2.7,9,4.6,10.3c1.3,0.9,3,1.4,4.8,1.4c1.8,0,3.7-0.4,5.8-1.3c1.6,0.3,3.3,0.5,5,0.5c11.4,0,20.9-7.9,23.4-18.5
	c4.8-1.9,7.6-4.4,7.6-7.1C383.4,24.8,380.3,22.2,374.6,20.2z M328.7,33.7c-4.7-1.7-7.4-3.9-7.4-6c0-2,2.4-3,7.7-4.4
	c-0.5,1.9-0.8,3.9-0.8,6C328.3,30.8,328.4,32.3,328.7,33.7z M368.4,9.3c1.4,1,2.3,2.6,2.5,4.7c-1.9-2.3-4.3-4.3-7-5.8
	C365.7,8.1,367.2,8.5,368.4,9.3z M331.7,13.6l2.2-1.7l1.9-2.4l1.5,2.1l2.6,2l-2.2,1.7l-1.9,2.5l-1.8-2.4L331.7,13.6z M329.8,29.3
	c0-4.4,1.2-8.5,3.6-12.2l2.4,3.2l2.9-3.8l3.8-2.8l-3.4-2.5c3.9-2.8,8.4-4.3,13.2-4.3c3.1,0,6.1,0.7,8.9,1.8c4,1.7,7.4,4.6,9.8,8.2
	c-0.1,1.1-0.2,2.2-0.5,3.4c-1.1,4.9-3.7,10.6-7.4,16.1c-3.5,0.5-7.4,0.7-11.6,0.7c-8.6,0-15.9-1.1-21.2-2.7
	C330,32.7,329.8,31,329.8,29.3z M337.6,51.4c-1.4-1-3.6-3.1-3.9-6.9c2.8,3.5,6.6,6.1,11,7.6C341.8,52.9,339.4,52.7,337.6,51.4z
	 M347.1,51.2c-7.7-1.8-13.9-7.7-16.3-15.2c5.5,1.6,12.7,2.5,20.7,2.5c3.7,0,7.2-0.2,10.5-0.6c-3.9,5.4-8.5,9.8-13.1,12.4
	C348.3,50.7,347.7,51,347.1,51.2z M352.3,51.8c-0.9,0-1.8,0-2.6-0.2c4.9-2.7,9.9-7.5,14-13.3c0.1-0.2,0.3-0.4,0.4-0.6
	c3.7-0.5,7.1-1.3,9.9-2.2C371.3,44.9,362.6,51.8,352.3,51.8z M374.4,33.7c-2.5,0.9-5.6,1.7-9.2,2.3c3.4-5.3,5.8-10.8,6.8-15.5
	c0.1-0.5,0.2-1,0.3-1.5c0.2,0.4,0.4,0.8,0.6,1.2c-0.1,0.1-0.1,0.1-0.1,0.2c-0.1,0.4,0.1,0.8,0.5,1c0,0,0.1,0,0.2,0.1
	c0.9,2.4,1.4,5.1,1.4,7.9C374.8,30.8,374.7,32.3,374.4,33.7z M376.1,33c0.2-1.2,0.3-2.5,0.3-3.8c0-2.5-0.4-4.9-1.1-7.2
	c4.2,1.6,6.5,3.6,6.5,5.6C381.8,29.6,379.8,31.5,376.1,33z M344,4.2l-0.6,1.4l-2.5-1l-1,2.5l-1.4-0.6l1-2.5l-2.5-1l0.6-1.4l2.5,1
	l1-2.5l1.4,0.6l-1,2.5L344,4.2z M367,56l-1,2.5l-1.4-0.6l1-2.5L367,56z M370.1,55.6l-0.6,1.4l-2.5-1l-1.4-0.6l-2.5-1l0.6-1.4l2.5,1
	l1-2.5l1.4,0.6l-1,2.5L370.1,55.6z M384,50l-0.6,1.4l-2.5-1l-1,2.5l-1.4-0.6l1-2.5l-2.5-1l0.6-1.4l2.5,1l1-2.5l1.4,0.6l-1,2.5
	L384,50z M384,14.5l-0.6,1.4l-2.5-1l-1,2.5l-1.4-0.6l1-2.5l-2.5-1l0.6-1.4l2.5,1l1-2.5l1.4,0.6l-1,2.5L384,14.5z M327.7,60.3l-3-3.9
	l-3.7-2.8l3.8-2.8l2.9-3.9l2.7,3.7l4,3l-3.8,2.8L327.7,60.3z M323.6,53.6l2.3,1.7l1.8,2.4l1.9-2.4l2.2-1.7l-2.6-2l-1.5-2.1l-1.9,2.4
	L323.6,53.6z M351.6,33.3l-4.4-5.8l-5.5-4.1l5.6-4.2l4.3-5.7l3.9,5.4l6,4.5l-5.6,4.2L351.6,33.3z M344.2,23.4l4.1,3.1l3.2,4.3
	l3.3-4.3l4.1-3l-4.6-3.5l-2.8-3.8l-3.3,4.3L344.2,23.4z"/>
</svg>
