<svg version="1.1" xmlns="http://www.w3.org/2000/svg" viewBox="0 0 24 24">
<path fill="currentColor" d="M22.4,2.8h-4.7V1.8h-1v0.9h-4.8V1.8h-1v0.9H6.4V1.8h-1v0.9H1.6C0.7,2.8,0,3.5,0,4.3v16.3c0,0.8,0.7,1.6,1.6,1.6h20.9
	c0.8,0,1.6-0.7,1.6-1.6V4.3C23.9,3.4,23.3,2.8,22.4,2.8z M23,20.7c0,0.3-0.2,0.5-0.4,0.5c0,0,0,0-0.1,0H1.6C1.3,21.2,1,21,1,20.8
	c0,0,0,0,0-0.1V4.3C1,4,1.3,3.8,1.5,3.8c0,0,0,0,0.1,0h3.8v0.8h1V3.8h4.5v0.8h1V3.8h4.8v0.8h1V3.8h4.6C22.7,3.8,23,4,23,4.2
	c0,0,0,0,0,0.1V20.7L23,20.7z M2.8,6.4v1h4.8v-1H2.8z M8.7,6.4v1h5.9v-1H8.7z M15.7,6.4v1H21v-1H15.7z M7.1,9.7v2.9h2.9V9.7H7.1z
	 M9,11.6H8.2v-0.9H9V11.6z M10.5,9.7v2.9h2.9V9.7H10.5z M12.4,11.6h-0.9v-0.9h0.8L12.4,11.6L12.4,11.6z M13.8,9.7v2.9h2.9V9.7H13.8z
	 M15.8,11.6H15v-0.9h0.8V11.6z M17.3,9.7v2.9h3V9.7H17.3z M19.3,11.6h-0.9v-0.9h0.9V11.6z M3.6,13v3h3v-3C6.6,13,3.7,13,3.6,13z
	 M5.4,15H4.6v-0.9h0.9L5.4,15L5.4,15z M7,13v3H10v-3C10,13,7.1,13,7,13z M8.9,15H8.1v-0.9h0.8V15z M10.4,13v3h2.9v-3
	C13.3,13,10.5,13,10.4,13z M12.4,15h-0.9v-0.9h0.8L12.4,15L12.4,15z M13.8,13v3h2.9v-3H13.8z M15.8,15H15v-0.9h0.8V15z M17.3,13v3h3
	v-3H17.3z M19.3,15h-0.9v-0.9h0.9V15z M3.6,16.5v2.9h3v-2.9C6.6,16.5,3.7,16.5,3.6,16.5z M5.4,18.4H4.6v-0.8h0.9L5.4,18.4L5.4,18.4z
	 M7,16.5v2.9H10v-2.9C10,16.5,7.1,16.5,7,16.5z M8.9,18.4H8.1v-0.8h0.8V18.4z M10.4,16.5v2.9h2.9v-2.9
	C13.3,16.5,10.5,16.5,10.4,16.5z M12.4,18.4h-0.9v-0.8h0.8L12.4,18.4L12.4,18.4z M13.8,16.5v2.9h2.9v-2.9H13.8z M15.8,18.4H15v-0.8
	h0.8V18.4z"/>
</svg>
