<svg version="1.1" xmlns="http://www.w3.org/2000/svg" viewBox="0 0 24 24">
<path fill="currentColor" d="M22.4,2.7h-4.7V1.8h-1v0.9h-4.8V1.8h-1v0.9H6.4V1.8h-1v0.9H1.6C0.7,2.7,0,3.4,0,4.3v16.4c0,0.9,0.7,1.6,1.6,1.6h20.9
	c0.9,0,1.6-0.7,1.6-1.6V4.3C24,3.4,23.3,2.7,22.4,2.7z M23,20.7c0,0.3-0.2,0.5-0.5,0.5H1.6C1.3,21.2,1,21,1,20.7V4.3
	C1,4,1.3,3.7,1.6,3.7h3.8v0.8h1V3.7h4.5v0.8h1V3.7h4.8v0.8h1V3.7h4.7C22.7,3.7,23,4,23,4.3V20.7z M21.1,7.4h-5.3v-1h5.3V7.4z
	 M14.7,7.4H8.8v-1h5.9V7.4z M7.6,7.4H2.8v-1h4.8V7.4z M6.6,13.3H2.8V9.5h3.8V13.3z M3.8,12.3h1.7v-1.7H3.8V12.3z M11.4,13.3H7.6V9.5
	h3.8V13.3z M8.7,12.3h1.7v-1.7H8.7V12.3z M16.2,13.3h-3.8V9.5h3.8V13.3z M13.5,12.3h1.7v-1.7h-1.7V12.3z M21.1,13.3h-3.8V9.5h3.8
	V13.3z M18.4,12.3H20v-1.7h-1.7V12.3z M6.6,17.8H2.8V14h3.8V17.8z M3.8,16.8h1.7v-1.7H3.8V16.8z M11.4,17.8H7.6V14h3.8V17.8z
	 M8.7,16.8h1.7v-1.7H8.7V16.8z M16.2,17.8h-3.8V14h3.8V17.8z M13.5,16.8h1.7v-1.7h-1.7V16.8z M21.1,17.8h-3.8V14h3.8V17.8z
	 M18.4,16.8H20v-1.7h-1.7V16.8z"/>
</svg>
