<svg version="1.1" xmlns="http://www.w3.org/2000/svg" viewBox="0 0 24 24">
<path fill="currentColor" d="M18.6,17.1L18.6,17.1l-1.7-4.9c0.7-0.5,1.4-1.2,1.9-2.1c0.1-0.2,0.1-0.4-0.1-0.5s-0.4-0.1-0.5,0.1c-0.5,0.7-0.9,1.2-1.6,1.7
	l-1.4-4.1c1-1.6,0.5-3.9-1.1-4.9c-0.2-0.1-0.5-0.3-0.7-0.3V0.4C13.2,0.2,13,0,12.8,0h-1.6c-0.3,0-0.4,0.2-0.4,0.4v1.7
	C8.9,2.9,7.9,4.9,8.6,6.8c0,0.3,0.2,0.5,0.3,0.8l-1.4,4c-0.6-0.5-1.1-1-1.6-1.7C5.7,9.6,5.4,9.5,5.3,9.7c-0.2,0.1-0.2,0.3-0.1,0.5
	c0.5,0.7,1.2,1.4,1.9,2.1l-1.7,4.8v0.1l-1.1,6.4C4.2,23.8,4.4,24,4.6,24h0.1C4.8,24,5,23.9,5,23.8l3.3-5.5c0,0,0-0.1,0.1-0.1
	l1.6-4.5c1.2,0.3,2.5,0.3,3.7,0l1.6,4.5c0,0,0,0.1,0.1,0.1l3.3,5.5c0.1,0.1,0.2,0.2,0.3,0.2h0.1c0.2-0.1,0.3-0.3,0.3-0.4
	C19.6,23.6,18.6,17.1,18.6,17.1z M13,9.1c0.6-0.2,1-0.4,1.4-0.8l1.3,3.7c-0.5,0.3-0.9,0.5-1.4,0.7L13,9.1z M11.5,2.1V0.8h0.8v1.2
	C12.1,2.1,11.9,2.1,11.5,2.1z M11.9,2.9c1.5,0,2.8,1.2,2.8,2.8s-1.2,2.8-2.8,2.8S9.1,7.2,9.1,5.5C9.1,4.1,10.5,2.9,11.9,2.9z
	 M9.4,8.3c0.4,0.4,0.9,0.7,1.4,0.8l-1.3,3.6c-0.5-0.2-1-0.4-1.4-0.7L9.4,8.3z M7.7,17.8l-2.2,3.7l0.7-4.2l1.6-4.6
	c0.5,0.3,0.9,0.5,1.4,0.7L7.7,17.8z M11.9,13c-0.5,0-1-0.1-1.5-0.2l1.3-3.6h0.5l1.3,3.6C13,12.9,12.5,13,11.9,13z M16.3,17.8
	l-1.6-4.5c0.5-0.2,1-0.4,1.4-0.7l1.6,4.6l0.7,4.2C18.4,21.5,16.3,17.8,16.3,17.8z"/>
</svg>
