<svg version="1.1" xmlns="http://www.w3.org/2000/svg" viewBox="0 0 24 24">
<path fill="currentColor" d="M20.1,23.2c0,0,0-0.1,0-0.1l-1-5.6c0,0,0-0.1,0-0.1l-2-4.9c1.8-1.2,3-3.1,3-5.2c0-0.3-0.3-0.6-0.6-0.6
	c-0.3,0-0.6,0.3-0.6,0.6c0,1.6-1,3-2.3,4l-1.6-4c0.5-0.6,0.7-1.3,0.7-2.1c0-1.7-1.3-3.2-2.9-3.5V0.6c0-0.3-0.3-0.6-0.6-0.6
	c-0.3,0-0.6,0.3-0.6,0.6v1.1C10,2,8.8,3.5,8.8,5.2c0,0.7,0.2,1.4,0.6,2l-1.8,4.1c-1.3-1-2.3-2.4-2.3-4c0-0.3-0.3-0.6-0.6-0.6
	S4.1,6.9,4.1,7.2c0,2,1.2,3.9,2.9,5.1L5,17c0,0,0,0.1,0,0.1l-1,5.6c0,0,0,0.1,0,0.1c-0.1,0.3,0.1,0.6,0.4,0.7c0.1,0,0.1,0,0.2,0
	c0.2,0,0.4-0.1,0.5-0.3c0,0,0,0,0.1-0.1l3.3-4.7c0,0,0-0.1,0.1-0.1l1.9-4.5c0.6,0.2,1.2,0.2,1.8,0.2c0.5,0,1.1-0.1,1.7-0.2l1.9,4.9
	c0,0,0,0.1,0.1,0.1l3.2,4.7c0,0,0.1,0.1,0.1,0.1c0.1,0.2,0.3,0.3,0.5,0.3c0.1,0,0.2,0,0.2,0C20,23.8,20.2,23.5,20.1,23.2z M12.3,2.8
	c1.3,0,2.3,1.1,2.3,2.3c0,1.3-1.1,2.3-2.3,2.3c-1.3,0-2.3-1-2.3-2.3C9.9,3.9,11,2.8,12.3,2.8z M7.3,17.8l-1.8,2.6l0.5-3L8,13
	c0.4,0.2,0.8,0.4,1.2,0.5L7.3,17.8z M9.7,12.4c-0.4-0.1-0.8-0.3-1.1-0.5L10.2,8c0.3,0.2,0.7,0.4,1.1,0.5L9.7,12.4z M12.1,12.9
	c-0.4,0-0.9-0.1-1.3-0.1l1.3-3.1l1.2,3.1C12.9,12.9,12.5,12.9,12.1,12.9z M13,8.6c0.4-0.1,0.8-0.2,1.1-0.5l1.5,3.8
	c-0.4,0.2-0.8,0.4-1.2,0.5L13,8.6z M16.7,18.3l-1.8-4.8c0.4-0.1,0.8-0.3,1.2-0.5l1.9,4.7l0.6,3.1L16.7,18.3z"/>
</svg>
