<svg version="1.1" xmlns="http://www.w3.org/2000/svg" viewBox="0 0 24 24">
<path fill="currentColor" d="M20.1,0H8.5l-6,6v16.5c0,0.8,0.7,1.5,1.5,1.5h16.1c0.8,0,1.5-0.7,1.5-1.5v-21C21.5,0.7,20.9,0,20.1,0z M8.1,2.5
	v3H5L8.1,2.5z M20.1,22.5H3.9V7h4.2c0.8,0,1.5-0.7,1.5-1.5V1.5h10.5V22.5z M14.1,11.4H6.6c-0.4,0-0.7-0.3-0.7-0.7s0.3-0.7,0.7-0.7
	h7.5c0.4,0,0.7,0.3,0.7,0.7S14.5,11.4,14.1,11.4z M17.3,15.1H6.6c-0.4,0-0.7-0.3-0.7-0.7s0.3-0.7,0.7-0.7h10.7
	c0.4,0,0.7,0.3,0.7,0.7S17.7,15.1,17.3,15.1z M17.3,18.8H6.6c-0.4,0-0.7-0.3-0.7-0.7s0.3-0.7,0.7-0.7h10.7c0.4,0,0.7,0.3,0.7,0.7
	S17.7,18.8,17.3,18.8z"/>
</svg>
