<svg xmlns="http://www.w3.org/2000/svg" viewBox="0 0 24 24">
<path fill="currentColor" d="M9.6,17.4c-1.6-0.1-3.2,0.1-4.7-0.1c-2.6-0.5-4.6-2.7-4.8-5.3S1.6,6.9,4,6c0.7-0.2,1-0.6,1.2-1.2c1-3.2,4.3-5.2,7.6-4.8
	c3.5,0.4,6.1,3.1,6.4,6.6v0.5c0.2,0.2,0.5,0.2,0.8,0.3c2.4,0.6,4.1,2.9,3.9,5.3c-0.2,2.5-2.1,4.6-4.7,4.8c-1.6,0.1-3.2,0-4.8,0
	c-0.2-0.5-0.1-0.9-0.1-1.5h4.2c2.4-0.1,4-2,3.6-4.3c-0.1-1.8-1.5-3-3.1-3c-1,0-1.2-0.5-1.2-1.4c0-3.1-2.1-5.6-5.1-5.9
	C9.6,1.1,7,3.1,6.4,6.1c-0.1,0.6-0.4,0.9-1,1c-2.3,0.5-3.8,2.4-3.7,4.7c0.2,2.4,2.1,4,4.6,4h3.2C9.8,16.4,9.6,16.9,9.6,17.4z
	 M12.9,20.2v-6.6c0-0.7,0.3-1.8-0.8-1.8s-0.8,1.2-0.8,1.9v6.6c0,0.3,0.1,0.6-0.2,1c-0.4-0.4-0.8-0.7-1.2-1c-0.4-0.4-0.9-0.5-1.3-0.1
	c-0.5,0.5-0.2,0.9,0.2,1.2c0.8,0.8,1.7,1.5,2.6,2.3c0.5,0.4,0.9,0.4,1.3,0l2.6-2.3c0.4-0.3,0.6-0.7,0.2-1.2c-0.4-0.4-0.8-0.3-1.3,0
	c-0.4,0.4-0.8,0.7-1.3,1.2C12.8,20.8,12.9,20.5,12.9,20.2z"/>
</svg>
