<svg version="1.1" xmlns="http://www.w3.org/2000/svg" viewBox="0 0 24 24">
<path fill="currentColor" d="M8.7,1.4c0.5,0,0.9,0.4,0.9,0.9v6.5c0,0.5-0.4,0.9-0.9,0.9H2.3c-0.5,0-0.9-0.4-0.9-0.9V2.3c0-0.5,0.4-0.9,0.9-0.9H8.7
	 M8.7,0H2.3C1,0,0,1,0,2.3v6.5C0,10,1,11,2.3,11h6.5C10,11,11,10,11,8.7V2.3C11,1,10,0,8.7,0L8.7,0z M21.7,1.4
	c0.5,0,0.9,0.4,0.9,0.9v6.5c0,0.5-0.4,0.9-0.9,0.9h-6.5c-0.5,0-0.9-0.4-0.9-0.9V2.3c0-0.5,0.4-0.9,0.9-0.9H21.7 M21.7,0h-6.5
	C14,0,13,1,13,2.3v6.5c0,1.3,1,2.3,2.3,2.3h6.5C23,11,24,10,24,8.7V2.3C24,1,23,0,21.7,0L21.7,0z M8.7,14.4c0.5,0,0.9,0.4,0.9,0.9
	v6.5c0,0.5-0.4,0.9-0.9,0.9H2.3c-0.5,0-0.9-0.4-0.9-0.9v-6.5c0-0.5,0.4-0.9,0.9-0.9H8.7 M8.7,13H2.3C1,13,0,14,0,15.3v6.5
	C0,23,1,24,2.3,24h6.5c1.3,0,2.3-1,2.3-2.3v-6.5C11,14,10,13,8.7,13L8.7,13z M21.7,14.4c0.5,0,0.9,0.4,0.9,0.9v6.5
	c0,0.5-0.4,0.9-0.9,0.9h-6.5c-0.5,0-0.9-0.4-0.9-0.9v-6.5c0-0.5,0.4-0.9,0.9-0.9H21.7 M21.7,13h-6.5C14,13,13,14,13,15.3v6.5
	c0,1.3,1,2.3,2.3,2.3h6.5c1.3,0,2.3-1,2.3-2.3v-6.5C24,14,23,13,21.7,13L21.7,13z"/>
</svg>
