<svg version="1.1" xmlns="http://www.w3.org/2000/svg" viewBox="0 0 24 24">
<path fill="currentColor" d="M9.3,10.2H0.8C0.4,10.2,0,9.8,0,9.4V0.9C0,0.4,0.4,0,0.8,0h8.5c0.5,0,0.8,0.4,0.8,0.8v8.5C10.2,9.8,9.8,10.2,9.3,10.2z
	 M1.1,9.1h8v-8h-8V9.1z M23.2,10.2h-8.5c-0.5,0-0.8-0.4-0.8-0.8V0.9c0-0.5,0.4-0.8,0.8-0.8h8.5C23.6,0,24,0.4,24,0.9v8.5
	C24,9.8,23.6,10.2,23.2,10.2z M14.9,9.1h8v-8h-8V9.1z M9.3,24H0.8C0.4,24,0,23.6,0,23.1v-8.5c0-0.5,0.4-0.8,0.8-0.8h8.5
	c0.5,0,0.8,0.4,0.8,0.8v8.5C10.2,23.6,9.8,24,9.3,24z M1.1,22.9h8v-8h-8V22.9z M23.2,24h-8.5c-0.5,0-0.8-0.4-0.8-0.8v-8.5
	c0-0.5,0.4-0.8,0.8-0.8h8.5c0.5,0,0.8,0.4,0.8,0.8v8.5C24,23.6,23.6,24,23.2,24z M14.9,22.9h8v-8h-8V22.9z"/>
</svg>
