<svg version="1.1" xmlns="http://www.w3.org/2000/svg" viewBox="0 0 24 24">
	<path fill="currentColor" d="M21.6,17.9c0,0.4-0.1,0.8-0.1,1.2c-0.1,0.7-0.2,1.4-0.6,2.1c-0.3,0.4-0.6,0.8-0.9,1.3c-0.3,0.5-0.8,0.8-1.3,1
		c-0.4,0.2-0.9,0.3-1.3,0.4c-0.9,0.1-1.8,0.2-2.6,0.2c-0.7,0-1.4,0-2.1,0c-0.5,0-1,0-1.5-0.1c-0.7,0-1.3-0.2-1.9-0.5
		c-1.1-0.6-2-1.4-2.6-2.5c-0.2-0.3-0.3-0.7-0.5-1.1c-0.5-1.1-1-2.2-1.5-3.3c-0.5-1.1-1-2.1-1.5-3.2c-0.2-0.3-0.3-0.6-0.5-1
		C2,11.3,2.5,9.8,3.7,9.2c0.9-0.4,1.8-0.3,2.6,0.3c0.2,0.1,0.4,0.2,0.6,0.4C6.9,9.7,7,9.5,7,9.3C7,8.6,7,7.8,7.1,7
		c0-0.9,0-1.7,0.1-2.6c0-0.5,0.1-1,0.4-1.4C8,2.2,8.8,1.8,9.7,1.6c0.3-0.1,0.6-0.2,0.9-0.4c0.3-0.2,0.5-0.5,0.8-0.7
		C11.9,0.2,12.3,0,12.8,0c0.6,0,1.1,0.2,1.6,0.6c0.3,0.3,0.6,0.7,0.8,1c0.2,0.4,0.5,0.6,0.9,0.6c1,0.1,1.6,0.5,2.1,1.4
		c0.1,0.3,0.3,0.5,0.6,0.6c0.1,0,0.3,0,0.4,0c0.8,0.1,1.5,0.5,2.1,1.1c0.2,0.3,0.3,0.6,0.3,1c0,0.2,0,0.5,0.1,0.7
		C21.6,10.7,21.6,14.3,21.6,17.9z M10.6,10.6c0-0.1,0-0.1,0-0.2c0-0.6,0-1.1,0-1.7c0-0.8,0-1.6,0-2.4c0-0.6-0.1-1.2-0.1-1.8
		c0-0.4-0.3-0.8-0.5-1c-0.2-0.2-0.4-0.2-0.6,0C9,3.6,8.8,3.9,8.8,4.3c0,1-0.1,2-0.1,3.1c0,0.8,0,1.7,0,2.5c0,0.7,0,1.4,0,2.1
		c0,0.5,0,1.1-0.1,1.6c0,0.3-0.2,0.5-0.4,0.6c-0.3,0.1-0.5,0.1-0.7-0.2c-0.1-0.1-0.1-0.1-0.2-0.2c-0.4-0.5-0.7-1.1-1.1-1.6
		c-0.3-0.4-0.6-0.9-0.9-1.2c-0.3-0.3-0.8-0.3-1.1,0C4.1,11,4,11.1,4,11.2c0.1,0.4,0.2,0.8,0.4,1.2c0.3,0.8,0.7,1.5,1.1,2.3
		c0.6,1.3,1.2,2.5,1.8,3.8c0.4,0.8,0.8,1.7,1.3,2.5c0.4,0.5,0.8,0.9,1.4,1.1c0.8,0.3,1.7,0.3,2.6,0.4c0.7,0,1.4,0,2.1,0
		c0.9,0,1.9,0,2.8-0.2c0.6-0.1,1.2-0.4,1.5-1c0.3-0.5,0.6-0.9,0.9-1.4c0.1-0.1,0.1-0.3,0.1-0.4c0-0.4,0-0.8,0-1.2c0-1.1,0-2.1,0-3.2
		c0-0.7,0-1.4,0-2.1c0-1.1,0-2.2,0-3.3c0-0.9,0-1.8-0.1-2.7c0-0.3-0.1-0.6-0.1-0.9c0-0.1-0.1-0.3-0.3-0.3c-0.3,0-0.5,0-0.7,0.3
		c-0.2,0.4-0.3,0.9-0.3,1.4c-0.1,0.7-0.1,1.5-0.1,2.2c0,0.4-0.1,0.7-0.1,1.1c0,0.1-0.1,0.3-0.3,0.3c-0.3,0-0.6,0-0.8,0
		c0-0.1,0-0.1,0-0.1C17,9.8,17,8.6,17,7.4c0-0.9,0-1.7-0.2-2.6c-0.1-0.3-0.2-0.6-0.3-0.8c-0.1-0.3-0.4-0.3-0.7-0.2
		c-0.2,0.1-0.3,0.2-0.4,0.5c-0.1,0.4-0.1,0.7-0.1,1.1c-0.1,1.2-0.1,2.3-0.2,3.5c0,0.3-0.1,0.6-0.3,0.8c-0.1,0.2-0.2,0.2-0.4,0.2
		C14.2,9.8,14,9.7,14,9.5c-0.1-0.3-0.1-0.6-0.2-0.9c0-0.7-0.1-1.5-0.1-2.2c0-0.5,0-1.1,0-1.6c-0.1-0.9-0.2-1.7-0.3-2.6
		c0-0.4-0.5-0.6-0.9-0.5C12.3,1.9,12,2.1,12,2.4c-0.1,0.4-0.2,0.9-0.2,1.3c0,0.6,0,1.3,0,1.9c0,1.3,0,2.7,0,4c0,0.3,0,0.6,0,1
		C11.3,10.6,11,10.6,10.6,10.6z"/>
</svg>
