<svg version="1.1" xmlns="http://www.w3.org/2000/svg" viewBox="0 0 24 24">
<path fill="currentColor" d="M16.2,24H13c-2.3,0-4.4-1.1-5.4-2.8L2.3,12c-0.2-0.3-0.3-0.7-0.2-1.1c0.1-0.4,0.4-0.8,0.9-1c0.1,0,1-0.4,1.4-0.4
	c0.6,0,1.1,0.3,1.5,0.7l2.4,3.3c0.1,0.1,0.1,0.2,0.2,0.3c0.1,0,0.1-0.1,0.1-0.1l0-2.2V4.1c0-1,0.9-1.8,2.1-1.8
	c0.3,0,0.6,0.1,0.9,0.2V1.9c0-1,1-1.9,2.2-1.9c0,0,0,0,0,0c0.5,0,1.1,0.2,1.5,0.5c0.4,0.4,0.7,0.9,0.7,1.4V2
	c0.3-0.1,0.6-0.2,0.9-0.2c0.5,0,1.1,0.2,1.5,0.5c0.4,0.4,0.7,0.9,0.7,1.4v0.8c0.3-0.1,0.6-0.2,1-0.2c0.5,0,1.1,0.2,1.4,0.5
	c0.4,0.4,0.7,0.8,0.7,1.4l0,13.1c-0.1,2.5-2.3,4.5-5.3,4.7L16.2,24z M4.4,10.7C4.4,10.7,4.4,10.7,4.4,10.7c-0.1,0-0.7,0.2-0.9,0.3
	c-0.1,0.1-0.2,0.1-0.2,0.2l0.1,0.2l5.3,9.2c0.8,1.3,2.5,2.2,4.3,2.2h3.5c2.3-0.2,4-1.7,4.1-3.5l0-13.1c0-0.1-0.1-0.3-0.2-0.4
	c-0.2-0.1-0.4-0.2-0.7-0.2c-0.5,0-0.9,0.3-0.9,0.6l0,6h-1.3V3.7c0-0.1-0.1-0.3-0.2-0.4c-0.2-0.1-0.4-0.2-0.7-0.2
	c-0.4,0-0.8,0.2-0.9,0.5v8.7h-1.3l0-8.6c0-0.1,0-0.2,0-0.3V1.9c0-0.1-0.1-0.3-0.2-0.4c-0.2-0.1-0.4-0.2-0.7-0.2
	c-0.5,0-0.9,0.3-0.9,0.6v10.5h-0.1v0.1h-1.3V4.1c0-0.1-0.1-0.2-0.2-0.3c-0.1-0.1-0.4-0.2-0.6-0.2c-0.5,0-0.8,0.3-0.8,0.5l0,9.4
	c0,0.6-0.4,1.2-1,1.4l-0.1,0.1l-0.4,0c-0.4,0-0.7-0.4-0.9-0.7c-0.1-0.1-0.1-0.2-0.2-0.2l-2.4-3.3C4.7,10.8,4.6,10.7,4.4,10.7z"/>
</svg>
