<svg version="1.1" xmlns="http://www.w3.org/2000/svg" viewBox="0 0 24 24">
<path fill="currentColor" d="M4,1.1C2.2,1.7,0.9,3.2,0.3,5c-0.2,3-0.3,6-0.2,9v7.9l0.7,0.7c1.2,1.2,1.7,1,4.6-1.3L7,19.7l6.2-0.1
	c6.8-0.1,7.1-0.2,8.7-1.5c1.6-1.3,1.9-2.2,2-7.2c0.1-5.9-0.1-6.8-1.7-8.4c-0.8-0.7-1.5-1.2-2.5-1.4C18.3,0.7,5.4,0.7,4,1.1z
	 M18.9,2.7c1.2,0.2,2.2,1,2.7,2c0.4,0.7,0.5,1.3,0.5,4.7c0.1,4.7-0.1,6.1-1.3,7.1c-1.3,1.3-1.4,1.3-8.1,1.3H6.6l-2.3,1.9
	C3,20.7,2,21.4,1.9,21.3c-0.2-2.6-0.2-5.4-0.1-8c0.1-7.2,0.1-7.9,0.5-8.6c0.5-1,1.5-1.7,2.6-2C9.6,2.5,14.2,2.5,18.9,2.7z M11.3,4.8
	c-0.8,0.9,0.2,2.5,1.1,2s0.5-2.3-0.4-2.3C11.7,4.4,11.4,4.6,11.3,4.8z M11.3,8.4c-0.2,0.2-0.2,1.4-0.2,3.8c0.1,3,0.1,3.5,0.5,3.7
	c0.2,0.2,0.7,0.2,0.9,0c0.3-0.2,0.4-0.8,0.5-3.7C13.2,8.6,13,8,12.2,8C11.7,8,11.4,8.3,11.3,8.4z"/>
</svg>
