<svg version="1.1" xmlns="http://www.w3.org/2000/svg" viewBox="0 0 24 24">
<path fill="currentColor" d="M12,0.6c-3.1,0-3.5,0-4.7,0.1c-1.2,0.1-2,0.2-2.8,0.5c-0.8,0.3-1.4,0.7-2,1.3s-1,1.3-1.3,2C0.9,5.2,0.7,6.1,0.6,7.3
	C0.6,8.5,0.6,8.9,0.6,12l0.1,4.7c0.1,1.2,0.2,2,0.5,2.8c0.3,0.8,0.7,1.4,1.3,2s1.3,1,2,1.3c0.7,0.3,1.6,0.5,2.8,0.5
	c1.2,0.1,1.6,0.1,4.7,0.1s3.5,0,4.7-0.1c1.2-0.1,2-0.2,2.8-0.5c0.8-0.3,1.4-0.7,2-1.3c0.6-0.6,1-1.3,1.3-2c0.3-0.7,0.5-1.6,0.5-2.8
	c0.1-1.2,0.1-1.6,0.1-4.7l-0.1-4.7c-0.1-1.2-0.2-2-0.5-2.8c-0.3-0.8-0.7-1.4-1.3-2s-1.3-1-2-1.3c-0.7-0.3-1.6-0.5-2.8-0.5
	C15.5,0.6,15.1,0.6,12,0.6z M12,2.6l4.6,0.1c1.1,0.1,1.7,0.2,2.1,0.4c0.5,0.2,0.9,0.5,1.3,0.9s0.6,0.8,0.9,1.3
	c0.2,0.4,0.3,1,0.4,2.1c0.1,1.2,0.1,1.6,0.1,4.6l-0.1,4.6c-0.1,1.1-0.2,1.7-0.4,2.1c-0.2,0.5-0.5,0.9-0.9,1.3
	c-0.4,0.4-0.8,0.6-1.3,0.9c-0.4,0.2-1,0.3-2.1,0.4c-1.2,0.1-1.6,0.1-4.6,0.1s-3.4,0-4.6-0.1c-1.1-0.1-1.7-0.2-2.1-0.4
	c-0.5-0.2-0.9-0.5-1.3-0.9c-0.4-0.4-0.6-0.8-0.9-1.3c-0.2-0.4-0.3-1-0.4-2.1c-0.1-1.2-0.1-1.6-0.1-4.6l0.1-4.6
	c0.1-1.1,0.2-1.7,0.4-2.1c0.2-0.5,0.5-0.9,0.9-1.3c0.4-0.4,0.8-0.6,1.3-0.9c0.4-0.2,1-0.3,2.1-0.4C8.6,2.6,8.9,2.6,12,2.6L12,2.6z
	 M12,15.8c-2.1,0-3.8-1.7-3.8-3.8S9.9,8.2,12,8.2s3.8,1.7,3.8,3.8S14.1,15.8,12,15.8z M12,6.1c-3.2,0-5.9,2.6-5.9,5.9
	s2.6,5.9,5.9,5.9s5.9-2.6,5.9-5.9S15.2,6.1,12,6.1z M19.5,5.9c0,0.8-0.6,1.4-1.4,1.4s-1.4-0.6-1.4-1.4s0.6-1.4,1.4-1.4
	S19.5,5.1,19.5,5.9z"/>
</svg>
