<svg version="1.1" xmlns="http://www.w3.org/2000/svg" viewBox="0 0 24 24">
<path fill="currentColor" d="M11.5,1c-0.1,0.7-0.1,1.5,0,2.2v1.9h1.4V0.9l-0.6-0.1C11.8,0.8,11.6,0.8,11.5,1L11.5,1z M3.2,4C2.8,4.4,3.1,5,4.3,6
	C5,6.9,5.7,7.3,5.9,7.2C6.8,7,6.6,6.3,5.3,5S3.5,3.5,3.2,4L3.2,4z M18.8,5c-1.4,1.4-1.5,2.1-0.5,2.2C18.7,7.3,19.1,7,20,6
	c1.4-1.4,1.6-2.1,0.5-2.2C20.1,3.7,19.7,4.1,18.8,5L18.8,5z M9.4,7.1c-3.2,1.5-4.7,5.3-3.2,8.7c0.3,0.7,0.8,1.5,1.5,2.1
	c1.1,1.1,1.3,1.3,1.3,2.4c0,1.3,0.4,2.5,1,2.7c1.5,0.2,2.9,0.2,4.4,0c0.6-0.2,1-1.4,1-2.7c0-1.4,0-1.4,1.3-2.5c1.4-1.3,2.1-3,2-4.9
	c-0.1-3.6-3-6.5-6.6-6.4C11,6.6,10.1,6.8,9.4,7.1L9.4,7.1z M14.4,8.8c1.6,0.7,2.5,2.3,2.5,4.1c0.2,1.6-0.4,3.1-1.7,4.2
	c-0.8,0.7-0.8,0.7-3.1,0.7S9.8,17.7,9,17c-1.3-0.9-1.9-2.5-1.7-4.2c0-0.9,0.2-1.8,0.8-2.5c0.9-1.4,2.4-2.1,4.1-2.1
	C12.8,8.1,13.7,8.3,14.4,8.8L14.4,8.8z M13.7,20.5l-0.1,1.3h-3l-0.1-2.4h3.2V20.5z M0.1,12.4c-0.1,0.2-0.1,0.5,0,0.7
	c0.1,0.4,0.3,0.4,2.2,0.4h2v-1.4l-2-0.1C0.6,12.1,0.2,12.1,0.1,12.4z M19.9,12.4c-0.1,0.2-0.1,0.5,0,0.7c0.1,0.4,0.3,0.4,2.1,0.4h2
	v-1.4l-1.9-0.1C20.6,12.1,20.1,12.1,19.9,12.4z"/>
</svg>
