<svg version="1.1" xmlns="http://www.w3.org/2000/svg" viewBox="0 0 24 24">
<path fill="currentColor" d="M23.6,5.5L19,1.2c-0.2-0.2-0.5-0.3-0.8-0.3H5.6C5.3,0.9,5,1,4.8,1.2L0.3,5.5C0.1,5.7,0,6,0,6.3C0,6.7,0.2,7,0.5,7.2L1.6,8
	v12.3c0,1.6,1.3,2.8,2.8,2.8h15.2c1.6,0,2.8-1.3,2.8-2.8V8l1.1-0.8C23.8,7,24,6.7,24,6.3C24,6,23.9,5.7,23.6,5.5z M18.7,22H5.3v-6
	l0.7,0.7l3-3h1.1L8,16l0.8,0.8l3-3h1.1L10.7,16l0.8,0.8l3-3h1.1L13.4,16l0.8,0.8l3-3h1.1L16.1,16l0.8,0.8l1.8-1.8V22z M5.3,15.9
	v-2.1h2.1L5.3,15.9z M21.3,20.3c0,0.9-0.7,1.6-1.5,1.7v-9.3H4.2V22c-0.8-0.1-1.5-0.8-1.5-1.7V8.6c0.2,0,0.4-0.1,0.6-0.2l2-1.4l2,1.4
	C7.5,8.5,7.7,8.6,8,8.6c0.2,0,0.5-0.1,0.6-0.2L10.5,7l1.6,1.3c0.4,0.3,1.1,0.3,1.5-0.1l1.2-1.1l1.5,1.2c0.4,0.4,1,0.3,1.5,0l1.4-1.2
	l1.6,1.2c0.2,0.1,0.4,0.2,0.6,0.2V20.3z M21.4,7.4l-1.6-1.2c-0.4-0.3-1-0.3-1.4,0L17,7.4l-1.5-1.2c-0.4-0.4-1.1-0.3-1.5,0l-1.2,1.1
	l-1.6-1.3c-0.4-0.3-0.9-0.3-1.3,0L8,7.5l-2-1.4C5.7,5.9,5.5,5.9,5.3,5.9c-0.2,0-0.4,0.1-0.6,0.2l-2,1.4L1.1,6.3L5.6,2h12.7l4.6,4.3
	L21.4,7.4z"/>
</svg>
