<svg version="1.1" xmlns="http://www.w3.org/2000/svg" viewBox="0 0 24 24">
<path fill="currentColor" d="M20.1,24C20.1,24,20.1,24,20.1,24L3.9,24c-1.4,0-2.5-1.1-2.5-2.5c0-1.5,1.5-2.7,2.2-3.2c0-1.7,0.4-3.3,1.1-5.6
	c0.1-0.3,2.1-6.3,5.5-6l3.8,0c3.4-0.3,5.3,5.8,5.3,6.1c0.6,2.1,1,3.4,1.1,5.1c0.6,0.5,2,1.7,2,3.6C22.5,22.9,21.4,24,20.1,24z
	 M10.1,7.9c-2,0-3.6,3.8-4.1,5.2c-0.7,2.3-1.2,3.8-1.1,5.5L5,19l-0.3,0.2c-0.5,0.3-1.9,1.4-1.9,2.4c0,0.7,0.6,1.3,1.2,1.3l16.1,0
	c0.7,0,1.3-0.6,1.3-1.2c0-1.8-1.7-2.8-1.7-2.8l-0.3-0.2l0-0.4c0-1.6-0.4-2.9-1-5.1c-0.5-1.5-2-5.4-4.1-5.2l-3.9,0
	C10.2,7.9,10.1,7.9,10.1,7.9z M14.9,6.1l2.5-2.4l0-0.3c0-1.2-0.5-2.2-1.6-2.7C15,0.2,13.8,0,12.3,0C7.5,0,6.7,2.1,6.7,3.3l0,0.2
	l2.2,2.3c0.2,0.2,0.6,0.3,0.9,0s0.3-0.6,0-0.9l-1.8-2c0.2-1.6,2.5-1.9,4.3-1.9c1.3,0,2.3,0.2,3,0.5c0.6,0.3,0.9,0.8,0.9,1.4
	l-2.1,2.1c-0.2,0.2-0.2,0.6,0,0.9c0.1,0.1,0.3,0.2,0.4,0.2C14.7,6.3,14.8,6.2,14.9,6.1z M12.7,16.4c0,0,0.1-0.1,0.2-0.2
	c0.1-0.1,0.1-0.2,0.1-0.3c0-0.1,0-0.1-0.1-0.1l-1.6,0c0-0.1,0-0.2,0-0.3l0-0.5l1.5,0c0,0,0.1-0.1,0.2-0.2c0.1-0.1,0.1-0.2,0.1-0.3
	c0-0.1,0-0.1-0.1-0.1l-1.6,0c0.1-0.5,0.2-0.9,0.4-1.2c0.2-0.3,0.5-0.4,0.8-0.4c0.3,0,0.5,0.1,0.7,0.2c0.1,0.1,0.2,0.3,0.3,0.5
	c0.1,0.2,0.2,0.3,0.2,0.4c0.1,0.1,0.2,0.1,0.4,0.1c0.2,0,0.3-0.1,0.4-0.2c0.1-0.1,0.2-0.2,0.2-0.4c0-0.5-0.2-0.9-0.7-1.2
	c-0.4-0.3-1-0.5-1.6-0.5c-1.4,0-2.2,0.9-2.5,2.6l-0.5,0c0,0-0.1,0.1-0.2,0.2c-0.1,0.1-0.1,0.2-0.1,0.3c0,0.1,0,0.1,0.1,0.1l0.6,0
	c0,0.3,0,0.5,0,0.6l0,0.2l-0.4,0c0,0-0.1,0.1-0.2,0.2c-0.1,0.1-0.1,0.2-0.1,0.3c0,0.1,0,0.1,0.1,0.1l0.6,0c0.1,0.9,0.4,1.6,0.8,2.1
	c0.5,0.5,1,0.7,1.7,0.7c0.7,0,1.3-0.2,1.7-0.6c0.5-0.4,0.7-0.9,0.7-1.4c0-0.2-0.1-0.4-0.2-0.5c-0.1-0.1-0.3-0.2-0.5-0.2
	c-0.1,0-0.2,0-0.3,0.1s-0.2,0.2-0.3,0.5c-0.2,0.4-0.4,0.7-0.6,0.8c-0.2,0.1-0.4,0.2-0.7,0.2c-0.6,0-1-0.6-1.1-1.8L12.7,16.4z"/>
</svg>
