<svg version="1.1" xmlns="http://www.w3.org/2000/svg" viewBox="0 0 24 24">
<path fill="currentColor" d="M9.6,14.1c0-1.1,0.8-2,1.8-2.2v-0.5c0-0.3,0.3-0.6,0.6-0.6s0.6,0.3,0.6,0.6V12c0.7,0.2,1.3,0.7,1.6,1.4
	c0.1,0.3,0,0.7-0.4,0.8c-0.3,0.1-0.7,0-0.8-0.3c-0.2-0.4-0.6-0.7-1.1-0.7c-0.6,0-1.2,0.3-1.2,1.1c0,0.2,0,0.8,1.3,1.1
	c2,0.5,2.3,1.6,2.3,2.3c0,1.1-0.8,2-1.8,2.2v0.5c0,0.3-0.3,0.6-0.6,0.6c-0.3,0-0.6-0.3-0.6-0.6V20c-0.7-0.2-1.3-0.7-1.6-1.4
	c-0.1-0.3,0-0.7,0.3-0.8c0.3-0.1,0.7,0,0.8,0.3c0.2,0.4,0.6,0.7,1.1,0.7c0.6,0,1.2-0.3,1.2-1.1c0-0.2,0-0.8-1.3-1.1
	C9.9,15.9,9.6,14.8,9.6,14.1z M13.9,5.7c0.3,0.2,0.7,0.1,0.9-0.2L17,2.6c0.2-0.2,0.2-0.5,0-0.7c0,0,0,0-0.1-0.1
	c-2.6-2.3-7-2.3-9.7,0c-0.2,0.2-0.2,0.5,0,0.8l2.1,2.9c0.2,0.3,0.6,0.3,0.9,0.1c0.2-0.1,0.3-0.5,0.1-0.7L8.4,2.4
	c2.2-1.5,5.1-1.5,7.2,0l-1.8,2.4C13.6,5.1,13.7,5.5,13.9,5.7z M3.7,17.6c0-4,1.8-8,5-10.6C8.8,7,9,6.9,9.1,6.9h5.9
	c0.2,0,0.3,0.1,0.4,0.2c3.1,2.6,5,6.6,5,10.6v1.8l0.2,0.1c1.2,0.6,1.6,1.9,1.1,3c-0.4,0.8-1.2,1.3-2.1,1.3h-15
	c-1.3-0.1-2.3-1.1-2.3-2.3c0-0.9,0.5-1.7,1.3-2.1l0.2-0.1V17.6z M3.5,21.8c0.1,0.5,0.5,0.8,1,0.8h15c0.6,0,1.1-0.5,1.1-1.1
	c0-0.4-0.2-0.8-0.6-1l-0.5-0.2c-0.2-0.1-0.4-0.3-0.3-0.6v-2.1c0-3.6-1.6-7.1-4.3-9.5H9.3c-2.7,2.4-4.3,5.9-4.3,9.5v2.1
	c0,0.2-0.1,0.5-0.3,0.6l-0.5,0.2C3.6,20.8,3.4,21.3,3.5,21.8z"/>
</svg>
