<svg version="1.1" xmlns="http://www.w3.org/2000/svg" viewBox="0 0 24 24">
<path fill="currentColor" d="M21.5,5.2l-2.7-2.7c-0.7-0.7-1.9-0.7-2.6,0L3.9,14.9c-0.1,0.1-0.1,0.1-0.1,0.2L2,21.5c0,0.2,0,0.3,0.1,0.4
	c0.1,0.1,0.2,0.1,0.3,0.1c0,0,0.1,0,0.1,0l6.4-1.8c0.1,0,0.1-0.1,0.2-0.1L21.5,7.8c0.3-0.3,0.5-0.8,0.5-1.3S21.9,5.6,21.5,5.2z
	 M14.2,5.8l1.7,1.7l-8.8,8.8L6.5,15c-0.1-0.2-0.2-0.3-0.4-0.3H5.3L14.2,5.8z M3.1,20.9l0.6-2.1l1.5,1.5L3.1,20.9z M8.3,19.4
	l-2.2,0.6l-2.2-2.2l0.6-2.2h1.2l0.8,1.6c0,0.1,0.1,0.2,0.2,0.2l1.6,0.8L8.3,19.4L8.3,19.4z M9.3,18.7v-0.7c0-0.2-0.1-0.3-0.3-0.4
	l-1.3-0.6l8.8-8.8l1.7,1.7L9.3,18.7z M20.9,7.2l-2,2l-4-4l2-2c0.3-0.3,0.9-0.3,1.3,0l2.7,2.7c0.2,0.2,0.3,0.4,0.3,0.6
	S21.1,7,20.9,7.2z"/>
</svg>
