<svg version="1.1" xmlns="http://www.w3.org/2000/svg" viewBox="0 0 24 24">
<path fill="currentColor" d="M23.2,10.5L23.2,10.5h-1c-0.1-1.1-0.5-2.2-1.3-3.2c-1.4-1.8-3.8-2.9-7.2-3.2V3.6c0-0.3-0.1-0.5-0.2-0.7
		C13.2,2.3,12.6,2,12.1,2S11,2.3,10.8,2.9c-0.1,0.2-0.2,0.5-0.2,0.7v0.6C7.1,4.4,4.8,5.6,3.4,7.3c-0.7,0.9-1.2,2-1.3,3.2H1l0,0
		c-0.5,0-1,0.5-1,1v1c0,0.3,0.1,0.5,0.3,0.7s0.4,0.3,0.7,0.3h1v5.4c0,1.7,1.4,3,3.2,3h13.6c0.8,0,1.6-0.3,2.2-0.8
		c0.6-0.6,0.9-1.3,0.9-2.1v-5.4h1c0.3,0,0.5-0.1,0.7-0.3c0.2-0.2,0.3-0.4,0.3-0.7v-1C24.1,11,23.7,10.5,23.2,10.5z M2.1,12.5h-1v-1
		h1V12.5z M11.6,3.6c0-0.1,0-0.2,0.1-0.3C11.8,3.1,12,3,12.1,3.1c0.2,0,0.3,0.1,0.4,0.2c0,0.1,0.1,0.2,0.1,0.3v0.5
		c-0.2,0-0.3,0-0.5,0s-0.3,0-0.5,0V3.6z M21,18.9c0,1.1-0.9,2-2.1,2l0,0H5.3c-1.1,0-2.1-0.9-2.1-2v-7.4H21C21,11.5,21,18.9,21,18.9z
		 M3.2,10.6c0-0.2,0.1-0.5,0.1-0.7c0.2-0.7,0.5-1.3,1-1.9c1.3-1.7,3.9-2.8,7.8-2.8s6.5,1,7.8,2.8c0.4,0.6,0.8,1.2,0.9,1.9
		c0.1,0.2,0.1,0.5,0.1,0.7C20.9,10.6,3.2,10.6,3.2,10.6z M23.1,12.5h-1v-1h1V12.5z"/>
</svg>
