<svg version="1.1" xmlns="http://www.w3.org/2000/svg" viewBox="0 0 24 24">
<path fill="currentColor" d="M20.8,24H3.2C1.4,24,0,22.6,0,20.8V3.2C0,1.4,1.4,0,3.2,0h14.5c0.5,0,1.1,0.3,1.5,0.6l0,0l4,4C23.7,5.2,24,5.8,24,6.6v14.3
	C24,22.6,22.6,24,20.8,24z M3.2,1.3c-1,0-1.9,0.9-1.9,1.9v17.7c0,1,0.9,1.9,1.9,1.9h17.7c1,0,1.9-0.9,1.9-1.9V6.6
	c0-0.4-0.1-0.8-0.4-1l-4-4c-0.1-0.1-0.4-0.3-0.6-0.3H3.2z M12,20.6c-2.4,0-4.4-2-4.4-4.4s2-4.4,4.4-4.4s4.4,2,4.4,4.4
	S14.4,20.6,12,20.6z M12,13c-1.8,0-3.2,1.4-3.2,3.2s1.4,3.2,3.2,3.2s3.2-1.4,3.2-3.2S13.8,13,12,13z M15.5,9.5H4.4
	C3.7,9.5,3,8.8,3,8.1V4.5c0-0.8,0.6-1.4,1.4-1.4h11.1c0.8,0,1.4,0.6,1.4,1.4v3.5C16.9,8.8,16.3,9.5,15.5,9.5z M4.4,4.4
	c0,0-0.1,0-0.1,0.1v3.5l0.1,0.1h11.1c0.1,0,0.1-0.1,0.1-0.1V4.5c0-0.1,0-0.1-0.1-0.1H4.4z"/>
</svg>
