<svg version="1.1" xmlns="http://www.w3.org/2000/svg" viewBox="0 0 24 24">
<path fill="currentColor" d="M7.9,0.2C4.2,1.2,1.2,4,0.3,7.7c-0.8,3.6,0.2,7.3,2.9,9.9c3.6,3.3,9.1,3.6,13,0.7c0.3-0.2,0.8,0.1,3.4,2.7l3,3l0.7-0.7
	l0.7-0.7l-3-2.9c-2.6-2.6-2.9-3-2.7-3.4c0.9-1.4,1.5-2.9,1.9-4.4c0.8-5.6-3-10.8-8.6-11.6C10.3,0,9.1,0,7.9,0.2L7.9,0.2z M12.8,2.3
	c3.3,1.2,5.4,4.3,5.5,7.7c0.1,2.1-0.7,4.2-2.2,5.6c-1.5,1.7-3.7,2.8-6,2.8c-4.5,0-8.3-3.7-8.3-8.3C1.8,8,2.6,5.9,4,4.4
	C6.2,2,9.8,1.2,12.8,2.3L12.8,2.3z"/>
</svg>
