<svg version="1.1" xmlns="http://www.w3.org/2000/svg" viewBox="0 0 24 24">
<path fill="currentColor" d="M9.5,15.4H5c-0.6,0-1.1-0.5-1.1-1.1V9.8C4,9.2,4.4,8.8,5,8.8h4.5c0.6,0,1.1,0.5,1.1,1.1v4.5
	C10.6,14.9,10.1,15.4,9.5,15.4z M5.4,13.9h3.7v-3.7H5.4V13.9z M9.5,24H5C4.4,24,4,23.5,4,22.9v-4.5c0-0.6,0.5-1.1,1.1-1.1h4.5
	c0.6,0,1.1,0.5,1.1,1.1v4.5C10.6,23.5,10.1,24,9.5,24z M5.4,22.6h3.7v-3.7H5.4V22.6z M9.5,6.8H5C4.4,6.8,4,6.3,4,5.7V1.2
	C4,0.6,4.4,0.1,5,0.1h4.5c0.6,0,1.1,0.5,1.1,1.1v4.5C10.6,6.3,10.1,6.8,9.5,6.8z M5.4,5.3h3.7V1.6H5.4V5.3z M14.2,6.9V0l-3.4,3.4
	L14.2,6.9z M20,20.4V3.8c0-0.6-0.5-1.1-1.1-1.1h-3.8v1.4h3.4V20h-7.9v1.4H19C19.5,21.4,20,20.9,20,20.4z"/>
</svg>
