<svg version="1.1" xmlns="http://www.w3.org/2000/svg" viewBox="0 0 24 24">
<path fill="currentColor" d="M8.4,0C8.2,0,7.8,0.3,7.8,0.5v1.7H3.7c-0.2,0-0.4,0.3-0.4,0.5v20.8c0,0.3,0.2,0.5,0.5,0.5h16.4c0.3,0,0.5-0.2,0.5-0.5V2.7
	c0-0.3-0.2-0.5-0.5-0.5h-4.1V0.5c0-0.3-0.2-0.5-0.5-0.5C15.5,0,8.4,0,8.4,0z M9,1.1h6v2.2H9V1.1z M4.3,3.3h3.5v0.5
	c0,0.3,0.2,0.5,0.5,0.5h7.1c0.3,0,0.5-0.2,0.5-0.5V3.3h3.5v2.2H4.3V3.3z M4.3,6.5h15.3V23H4.3V6.5z M9.7,9C9.6,9,9.5,9.1,9.4,9.2
	L7.6,11l-0.7-0.7c-0.1-0.1-0.3-0.2-0.5-0.2S6.1,10.3,6,10.5c0,0.2,0,0.4,0.2,0.5l1.1,1.1c0.2,0.2,0.5,0.2,0.7,0l2.2-2.2
	c0.2-0.2,0.2-0.4,0.1-0.6C10.2,9.1,10,9,9.7,9L9.7,9z M11.4,10.4c-0.2,0-0.4,0.1-0.4,0.3c-0.1,0.2-0.1,0.4,0,0.5
	c0.1,0.2,0.3,0.3,0.5,0.2h6c0.2,0,0.4-0.1,0.5-0.3c0.1-0.2,0.1-0.4,0-0.5c-0.1-0.2-0.3-0.3-0.5-0.3L11.4,10.4L11.4,10.4z M9.7,13.1
	c-0.1,0-0.2,0.1-0.3,0.2l-1.8,1.8l-0.7-0.7c-0.1-0.1-0.3-0.2-0.5-0.2S6.1,14.3,6,14.5c0,0.2,0,0.4,0.2,0.5l1.1,1.1
	c0.2,0.2,0.5,0.2,0.7,0l2.2-2.2c0.2-0.2,0.2-0.4,0.1-0.6C10.2,13.2,10,13.1,9.7,13.1z M11.4,14.5c-0.2,0-0.4,0.1-0.4,0.3
	c-0.1,0.2-0.1,0.4,0,0.5c0.1,0.1,0.3,0.3,0.5,0.2h6c0.2,0,0.4-0.1,0.5-0.3c0.1-0.2,0.1-0.4,0-0.5c-0.1-0.2-0.3-0.3-0.5-0.3
	L11.4,14.5L11.4,14.5z M9.7,17.2c-0.1,0-0.2,0.1-0.3,0.2l-1.8,1.8l-0.7-0.7c-0.1-0.1-0.3-0.2-0.5-0.2S6.1,18.5,6,18.7
	c0,0.2,0,0.4,0.2,0.5l1,1.1c0.2,0.2,0.5,0.2,0.7,0l2.2-2.2c0.2-0.2,0.2-0.4,0.1-0.6C10.1,17.4,10,17.2,9.7,17.2L9.7,17.2z
	 M11.4,18.6c-0.2,0-0.4,0.1-0.4,0.3c-0.1,0.2-0.1,0.4,0,0.5c0.1,0.1,0.3,0.3,0.5,0.2h6c0.2,0,0.4-0.1,0.5-0.3c0.1-0.2,0.1-0.4,0-0.5
	c-0.1-0.2-0.3-0.3-0.5-0.3L11.4,18.6L11.4,18.6z"/>
</svg>
