<svg version="1.1" xmlns="http://www.w3.org/2000/svg" viewBox="0 0 24 24">
<path fill="currentColor" d="M18.8,3.9h-2.6V3.3c0-0.4-0.3-0.7-0.7-0.7h-7c-0.4,0-0.7,0.3-0.7,0.7v0.6H5.2c-0.4,0-0.7,0.3-0.7,0.7v16.2
	c0,0.4,0.3,0.7,0.7,0.7h13.6c0.4,0,0.7-0.3,0.7-0.7V4.6C19.5,4.2,19.2,3.9,18.8,3.9z M8.8,3.5h6.4v1.6H8.8V3.5z M18.5,20.5h-13V7.7
	h13V20.5z M18.5,6.7h-13V4.8h2.4v0.6c0,0.4,0.3,0.7,0.7,0.7h7c0.4,0,0.7-0.3,0.7-0.7V4.8h2.4V6.7z M8,12.4l-1.4-0.8
	c-0.2-0.1-0.3-0.4-0.2-0.6c0.1-0.2,0.4-0.3,0.6-0.2l0.6,0.3l1.1-1.8C8.9,9,9.1,9,9.4,9.1c0.2,0.1,0.3,0.4,0.2,0.6L8,12.4z
	 M16.6,11.8h-5.3c-0.3,0-0.5-0.2-0.5-0.5c0-0.3,0.2-0.5,0.5-0.5h5.3c0.3,0,0.5,0.2,0.5,0.5C17,11.6,16.8,11.8,16.6,11.8z M8,15.5
	l-1.4-0.8c-0.2-0.1-0.3-0.4-0.2-0.6c0.1-0.2,0.4-0.3,0.6-0.2l0.6,0.3l1.1-1.8c0.1-0.2,0.4-0.3,0.6-0.2c0.2,0.1,0.3,0.4,0.2,0.6
	L8,15.5z M16.6,15h-5.3c-0.3,0-0.5-0.2-0.5-0.5c0-0.3,0.2-0.5,0.5-0.5h5.3c0.3,0,0.5,0.2,0.5,0.5C17,14.8,16.8,15,16.6,15z M8,19.1
	l-1.4-0.8c-0.2-0.1-0.3-0.4-0.2-0.6c0.1-0.2,0.4-0.3,0.6-0.2l0.6,0.3L8.7,16c0.1-0.2,0.4-0.3,0.6-0.2c0.2,0.1,0.3,0.4,0.2,0.6
	L8,19.1z M16.6,18.6h-5.3c-0.3,0-0.5-0.2-0.5-0.5s0.2-0.5,0.5-0.5h5.3c0.3,0,0.5,0.2,0.5,0.5S16.8,18.6,16.6,18.6z"/>
</svg>
