<svg version="1.1" xmlns="http://www.w3.org/2000/svg" viewBox="0 0 24 24">
<path fill="currentColor" d="M14.6,8.6l-0.4,10.3c0,0.2,0.1,0.3,0.3,0.3h1.2c0.2,0,0.3-0.1,0.3-0.3l0.4-10.3c0-0.2-0.1-0.3-0.3-0.3h-1.2
	C14.8,8.3,14.6,8.4,14.6,8.6z M11.4,19.3h1.2c0.2,0,0.3-0.1,0.3-0.3V8.6c0-0.2-0.1-0.3-0.3-0.3h-1.2c-0.2,0-0.3,0.1-0.3,0.3v10.3
	C11.1,19,11.3,19.3,11.4,19.3z M7.5,8.6l0.4,10.3c0,0.2,0.2,0.3,0.3,0.3h1.2c0.2,0,0.3-0.2,0.3-0.3L9.4,8.6c0-0.2-0.2-0.3-0.3-0.3
	H7.8C7.7,8.3,7.5,8.5,7.5,8.6z M14.6,8.6l-0.4,10.3c0,0.2,0.1,0.3,0.3,0.3h1.2c0.2,0,0.3-0.1,0.3-0.3l0.4-10.3
	c0-0.2-0.1-0.3-0.3-0.3h-1.2C14.8,8.3,14.6,8.4,14.6,8.6z M11.4,19.3h1.2c0.2,0,0.3-0.1,0.3-0.3V8.6c0-0.2-0.1-0.3-0.3-0.3h-1.2
	c-0.2,0-0.3,0.1-0.3,0.3v10.3C11.1,19,11.3,19.3,11.4,19.3z M7.5,8.6l0.4,10.3c0,0.2,0.2,0.3,0.3,0.3h1.2c0.2,0,0.3-0.2,0.3-0.3
	L9.4,8.6c0-0.2-0.2-0.3-0.3-0.3H7.8C7.7,8.3,7.5,8.5,7.5,8.6z M9.1,8.3H7.8c-0.2,0-0.3,0.2-0.3,0.3l0.4,10.3c0,0.2,0.2,0.3,0.3,0.3
	h1.2c0.2,0,0.3-0.2,0.3-0.3L9.4,8.6C9.4,8.4,9.2,8.3,9.1,8.3z M11.1,8.6v10.3c0,0.2,0.1,0.3,0.3,0.3h1.2c0.2,0,0.3-0.1,0.3-0.3V8.6
	c0-0.2-0.1-0.3-0.3-0.3h-1.2C11.3,8.3,11.1,8.4,11.1,8.6z M14.6,8.6l-0.4,10.3c0,0.2,0.1,0.3,0.3,0.3h1.2c0.2,0,0.3-0.1,0.3-0.3
	l0.4-10.3c0-0.2-0.1-0.3-0.3-0.3h-1.2C14.8,8.3,14.6,8.4,14.6,8.6z M16.5,3.4V2.1c0-1.1-0.8-1.9-1.9-1.9H9.3c-1.1,0-1.9,0.8-1.9,1.9
	v1.4c0,0.2-0.1,0.3-0.3,0.3H1.4c-0.2,0-0.3,0.1-0.3,0.3v1.2c0,0.2,0.1,0.3,0.3,0.3h1.3C2.8,5.6,3,5.7,3,5.9l1.5,17
	c0,0.5,0.4,0.8,0.9,0.8h13.3c0.5,0,0.8-0.3,0.9-0.8l1.5-17c0-0.2,0.2-0.3,0.3-0.3h1.3c0.2,0,0.3-0.1,0.3-0.3V4.1
	c0-0.2-0.1-0.3-0.3-0.3h-5.8C16.7,3.7,16.5,3.6,16.5,3.4z M9.6,2h4.7c0.2,0,0.3,0.1,0.3,0.3v1.1c0,0.2-0.1,0.3-0.3,0.3H9.6
	c-0.1,0-0.3-0.1-0.3-0.3V2.3C9.3,2.2,9.5,2,9.6,2z M17.5,22H6.5c-0.2,0-0.3-0.1-0.3-0.3L4.8,6c0-0.2,0.1-0.3,0.3-0.3h13.7
	c0.2,0,0.3,0.2,0.3,0.3l-1.4,15.7C17.8,21.8,17.6,22,17.5,22z"/>
</svg>
