<svg version="1.1" xmlns="http://www.w3.org/2000/svg" viewBox="0 0 24 24">
<path fill="currentColor" d="M7.6,21.8c9.1,0,14-7.5,14-14c0-0.2,0-0.4,0-0.6c1-0.7,1.8-1.6,2.4-2.6c-0.9,0.4-1.8,0.6-2.8,0.7c1-0.6,1.8-1.6,2.2-2.7
	c-1,0.6-2.1,1-3.2,1.2c-1-1.1-2.2-1.7-3.6-1.7c-2.7,0-4.9,2.2-4.9,4.9c0,0.4,0,0.7,0.1,1.1c-4-0.1-7.7-2-10.2-5
	C0.4,5.4,1.1,8.3,3.2,9.7C2.4,9.7,1.6,9.4,1,9.1v0.1c0,2.3,1.7,4.4,3.9,4.8c-0.7,0.2-1.5,0.2-2.2,0.1c0.6,2,2.4,3.4,4.7,3.4
	c-1.7,1.3-3.9,2.1-6.1,2.1c-0.4,0-0.7,0-1.2-0.1C2.2,20.9,4.9,21.8,7.6,21.8"/>
</svg>
