<svg version="1.1" xmlns="http://www.w3.org/2000/svg" viewBox="0 0 24 24">
<path fill="currentColor" d="M18.7,11.1v-2c0-3.5-2.8-6.4-6.4-6.4C9.1,2.7,6.3,5.3,6,8.6c-3.4,0.2-6,2.9-6,6.3c0,3.5,2.8,6.4,6.3,6.4h0l12.3-0.1
	c3.2,0,5.4-1.9,5.4-4.7C24,13.5,21.6,11.1,18.7,11.1z M18.6,20.1L6.3,20.2c-2.9,0-5.3-2.4-5.3-5.3C1,12,3.4,9.6,6.3,9.6L7,9.7V9.1
	c0-2.9,2.4-5.3,5.3-5.3s5.3,2.4,5.3,5.3v3h0.9c2.4,0,4.4,2,4.4,4.4C23,19.2,20.6,20.1,18.6,20.1z M16.1,11.9l-0.7,0.7l-2.5-2.5V17
	h-1v-7l-2.6,2.6l-0.7-0.7l3.7-3.7L16.1,11.9z"/>
</svg>
