<svg version="1.1" xmlns="http://www.w3.org/2000/svg" viewBox="0 0 24 24">
<path fill="currentColor" d="M12,3.2C8.5,3,5.5,5.6,4.8,9c-3,0.6-5.2,3.4-4.8,6.5c0.3,3,2.9,5.4,5.9,5.4h12.8c2.8,0,5.2-2.2,5.3-4.9
	c0.1-2.8-2-5.2-4.7-5.5c0.1-4-3.1-7.3-7.2-7.4C12.1,3.2,12,3.2,12,3.2z M12,4.7c1.6,0,3,0.6,4,1.7c1.2,1.2,1.9,3,1.7,4.8
	c0,0.4,0.2,0.8,0.7,0.9h0.1h0.3c2,0,3.6,1.7,3.6,3.7s-1.6,3.6-3.6,3.7H6c-2.5,0-4.4-2-4.4-4.5c0-2.2,1.8-4.1,3.9-4.4
	c0.3,0,0.7-0.3,0.7-0.7C6.6,6.9,9.1,4.7,12,4.7L12,4.7z M12,9.4c-0.2,0-0.3,0.1-0.6,0.2l-2.8,2.6c-0.3,0.3-0.3,0.8,0,1.1
	c0.3,0.3,0.8,0.3,1.1,0l1.6-1.5v5c0,0.4,0.3,0.7,0.8,0.7c0.4,0,0.8-0.3,0.8-0.7v-5l1.6,1.5c0.3,0.2,0.8,0.2,1.1,0
	c0.3-0.3,0.2-0.8,0-1.1l-2.9-2.6C12.5,9.4,12.2,9.3,12,9.4L12,9.4z"/>
</svg>
