<svg version="1.1" xmlns="http://www.w3.org/2000/svg" viewBox="0 0 24 24">
<path fill="currentColor" d="M8.1,3C6.7,3.5,5.6,4.5,4.9,5.9C4.5,6.7,4.3,7.6,4.5,8.5C4.4,9.8,5,11.1,6,12c2.1,2.1,5.5,2.1,7.7,0
	c1.1-1.1,1.7-2.7,1.6-4.3c-0.2-2.3-1.8-4.2-4-4.8C10.2,2.6,9.1,2.6,8.1,3L8.1,3z M11.9,4.7c1.9,1.2,2.6,3.7,1.4,5.6
	c-0.7,1.2-2.1,2-3.5,2c-2.2,0-4.1-1.8-4.1-4c0-1,0.4-2,1.1-2.8C8,4,10.2,3.6,11.9,4.7z M19.9,3.2c-0.1,0.4-0.1,0.8-0.1,1.2
	c0,0.4,0,0.8-0.2,1.1c-0.4,0.2-0.9,0.3-1.3,0.2c-1,0-1.1,0-1.2,0.5c-0.2,0.7,0,0.9,1.3,0.9c0.5-0.1,0.9,0,1.3,0.2
	c0.2,0.4,0.2,0.9,0.2,1.4c0.1,1.1,0.1,1.2,0.5,1.2s0.5-0.1,0.6-1.2c0-0.5,0.1-0.9,0.3-1.4c0.4-0.1,0.9-0.2,1.4-0.2
	C23.8,7,23.8,7,23.8,6.4s0-0.6-1.2-0.6c-0.5,0-1-0.1-1.4-0.3C21.1,5.1,21,4.6,21,4.1c-0.1-1-0.1-1.2-0.5-1.2C20.3,2.9,20,3,19.9,3.2
	L19.9,3.2z M2.9,16.5c-1.6,0.9-2.6,2.5-2.7,4.3c0,0.5,0.1,0.5,0.7,0.5s0.7,0,0.7-0.7c0.1-1,0.6-2,1.3-2.7l0.6-0.5h6.2
	c6.9,0,6.8,0,7.7,1.3c0.3,0.5,0.5,1,0.6,1.6c0.1,0.8,0.1,0.9,0.7,1c0.6,0.1,0.6,0,0.6-0.5c0-1.8-1-3.4-2.5-4.2
	c-0.7-0.4-1.1-0.4-6.9-0.4C4.5,16.1,3.5,16.2,2.9,16.5L2.9,16.5z"/>
</svg>
