<svg version="1.1" xmlns="http://www.w3.org/2000/svg" viewBox="0 0 24 24">
<path fill="currentColor" d="M15.3,15c-2.8,0-4.9-2.1-4.9-5c0-2.8,2.2-4.9,5.1-4.9c2.8,0,4.9,2.2,4.9,5C20.3,12.9,18.3,15,15.3,15z M15.3,6.6
	c-2,0-3.5,1.7-3.5,3.5s1.6,3.4,3.5,3.4s3.5-1.6,3.5-3.5S17.3,6.6,15.3,6.6z M10.7,16.8c-2.3,0-4.1,2.1-4,4.4c0,0.5,0.3,0.5,0.7,0.5
	c0.4,0,0.7-0.1,0.7-0.5c0-0.2,0-0.2,0-0.4c0.2-1.4,1.3-2.5,2.7-2.5c3,0,6,0,9.1,0c0.9,0,1.7,0.5,2.2,1.4c0.2,0.5,0.4,1,0.4,1.7
	c0,0.5,0.4,0.5,0.7,0.5c0.4,0,0.6-0.1,0.6-0.5c0.2-2.2-1.7-4.4-4-4.4c-1.6,0-3,0-4.6,0C13.9,16.8,12.3,16.8,10.7,16.8z M3.7,8.1
	c0.1,0.3,0.2,0.7,0.3,1c0.7,1.8,2.7,3,4.4,2.9c0.4,0,0.6-0.2,0.5-0.5c0-0.7,0-0.7-0.8-0.8C6.7,10.5,5.4,9.4,5.1,8
	C4.8,6.6,5.3,5.1,6.6,4.4c1.1-0.8,2.7-0.8,4-0.1c0.2,0.1,0.4,0.4,0.6,0.6c0.2,0.2,0.6,0.2,1-0.2c0.3-0.2,0.2-0.5-0.1-0.7
	c-0.4-0.4-0.8-0.8-1.4-1C7.4,1.1,3.5,3.5,3.5,7.3C3.7,7.5,3.7,7.8,3.7,8.1z M0.6,19c0.6,0.1,0.8-0.1,0.8-0.7c0-0.5,0.1-1.3,0.5-1.7
	c0.5-0.7,1.4-1.1,2.2-1.1c1.6,0,3.2,0,4.7,0c0.5,0,0.7-0.2,0.7-0.6c0-0.6-0.1-0.7-0.7-0.7c-1.7,0-3.3,0-5,0c-2.1,0-3.9,1.8-3.9,4
	C0.1,18.8,0.1,18.9,0.6,19z"/>
</svg>
