<svg version="1.1" xmlns="http://www.w3.org/2000/svg" viewBox="0 0 24 24">
<path fill="currentColor" d="M10.2,0.4C8.7,0.9,7.4,1.7,6.5,3.1C4.3,6.3,5,10.7,8.3,12.8c0.8,0.6,1.6,0.9,2.5,1.1c3.8,0.6,7.4-1.8,8.2-5.7
	c0.1-0.9,0.1-1.9,0-2.8c-0.6-3.6-4.3-6-8-5.4C10.6,0.4,10.3,0.4,10.2,0.4L10.2,0.4z M14.3,2.5c1.9,0.9,2.9,2.6,2.9,4.6
	c0,2.8-2.1,5.2-4.9,5.2h-0.1c-2.8,0-5-2.1-5.2-5V7.1C6.9,4.4,9,2,11.9,2C12.8,2,13.6,2.1,14.3,2.5L14.3,2.5z M4.4,17.1
	C1.8,17.8,0,20.2,0,22.9c0,1,0,1,0.8,1s0.8,0,1-1.3c0.1-1.4,0.9-2.8,2.1-3.4c1.3-0.6,15-0.6,16.1,0c1.3,0.6,1.9,1.6,2.1,3.3
	c0.3,1.5,0.4,1.5,1.1,1.5H24l-0.1-1.5c-0.1-2.1-1.4-4.1-3.3-5c-0.5-0.4-1.4-0.4-7.9-0.4C8.4,17,4.8,17.1,4.4,17.1L4.4,17.1z"/>
</svg>
