<svg version="1.1" xmlns="http://www.w3.org/2000/svg" viewBox="0 0 24 24">
<path fill="currentColor" d="M21.3,13.1l-0.4-1.5v0l-3.3-1.9V1.5c0-0.3-0.2-0.5-0.5-0.5H15V0.5C15,0.2,14.8,0,14.5,0H9C8.7,0,8.5,0.2,8.5,0.5V1H6.4
	C6.1,1,5.9,1.3,5.9,1.5V10l-2.6,1.6l0,0L2.7,13c-0.1,0.3,0,0.5,0.2,0.7l0.7,0.4v5.5l0,0.1L3.8,20l8,4c0.1,0,0.2,0.1,0.2,0.1
	c0.1,0,0.2,0,0.2-0.1l8.2-4.3c0.2-0.1,0.3-0.3,0.3-0.5v-5.4l0.3-0.1C21.3,13.6,21.4,13.3,21.3,13.1z M17.6,10.6l1.7,1l-1.7,0.9V10.6
	z M9.2,0.7h5V2h-5V0.7z M6.6,1.8h1.9v0.5c0,0.3,0.2,0.5,0.5,0.5h5.5c0.3,0,0.5-0.2,0.5-0.5V1.8h1.9v1.5H6.6V1.8z M6.6,4h10.2v8.8
	l-4.7,2.4l-5.5-2.7V4z M5.9,10.9v1.2l-1.1-0.5L5.9,10.9z M3.5,13.1L3.9,12l7.7,3.8l0.1-0.1v0.1l-0.1,0l-1,1.1L3.5,13.1z M4.4,14.4
	l6.1,3.1c0.1,0,0.1,0.1,0.2,0.1c0.1,0,0.3-0.1,0.4-0.2l0.6-0.7v6.3l-7.3-3.6V14.4z M20,19.1l-7.6,4v-6.3l0.5,0.6
	c0.1,0.2,0.4,0.2,0.6,0.1l6.5-3.3V19.1z M13.4,16.8l-0.8-1l7.6-3.8l0.3,1.2L13.4,16.8z M8.6,7.7L7.5,7C7.3,6.9,7.3,6.7,7.4,6.5
	c0.1-0.2,0.3-0.2,0.5-0.1l0.4,0.3l0.8-1.4C9.3,5.1,9.5,5,9.7,5.1c0.2,0.1,0.2,0.3,0.1,0.5L8.6,7.7z M15.3,7.3h-4.1
	c-0.2,0-0.4-0.2-0.4-0.4c0-0.2,0.2-0.4,0.4-0.4h4.1c0.2,0,0.4,0.2,0.4,0.4C15.7,7.1,15.5,7.3,15.3,7.3z M8.6,10.2L7.5,9.5
	C7.3,9.4,7.3,9.2,7.4,9c0.1-0.2,0.3-0.2,0.5-0.1l0.4,0.3l0.8-1.4c0.1-0.2,0.3-0.2,0.5-0.1c0.2,0.1,0.2,0.3,0.1,0.5L8.6,10.2z
	 M15.3,9.7h-4.1c-0.2,0-0.4-0.2-0.4-0.4C10.8,9.2,11,9,11.2,9h4.1c0.2,0,0.4,0.2,0.4,0.4C15.7,9.6,15.5,9.7,15.3,9.7z M8.6,13
	l-1.1-0.7c-0.2-0.1-0.2-0.3-0.1-0.5c0.1-0.2,0.3-0.2,0.5-0.1L8.3,12l0.8-1.4c0.1-0.2,0.3-0.2,0.5-0.1c0.2,0.1,0.2,0.3,0.1,0.5
	L8.6,13z M15.3,12.6h-4.1c-0.2,0-0.4-0.2-0.4-0.4c0-0.2,0.2-0.4,0.4-0.4h4.1c0.2,0,0.4,0.2,0.4,0.4C15.7,12.4,15.5,12.6,15.3,12.6z
	 M11.7,15.7v0.1V15.7L11.7,15.7z M11.7,15.7v0.1V15.7L11.7,15.7z"/>
</svg>
